<svg xmlns="http://www.w3.org/2000/svg" width="980" height="700" viewBox="0 0 980 700" fill="none">
<defs>
  <linearGradient id="lineBlue" x1="0" y1="0" x2="980" y2="700" gradientUnits="userSpaceOnUse">
    <stop stop-color="#7FE7FF"/>
    <stop offset="0.55" stop-color="#64B8FF"/>
    <stop offset="1" stop-color="#7D9CFF"/>
  </linearGradient>
  <linearGradient id="panelGlow" x1="0" y1="0" x2="0" y2="700" gradientUnits="userSpaceOnUse">
    <stop stop-color="rgba(40,130,255,0.20)"/>
    <stop offset="1" stop-color="rgba(8,26,68,0.12)"/>
  </linearGradient>
  <filter id="softGlow" x="-20%" y="-20%" width="140%" height="140%">
    <feGaussianBlur stdDeviation="3" result="blur"/>
    <feMerge>
      <feMergeNode in="blur"/>
      <feMergeNode in="SourceGraphic"/>
    </feMerge>
  </filter>
</defs>
<rect width="980" height="700" fill="none"/>
<polygon points="10,1 970,1 979,10 979,690 970,699 10,699 1,690 1,10" stroke="url(#lineBlue)" stroke-width="2.5" fill="rgba(8,20,42,0.52)"/>
<polygon points="16,8 964,8 972,16 972,684 964,692 16,692 8,684 8,16" stroke="rgba(125,210,255,0.22)" stroke-width="1.2" fill="rgba(16,40,74,0.18)"/>
<circle cx="954" cy="18" r="3" fill="#8FE6FF" filter="url(#softGlow)"/>
<path d="M 935 18 H 966" stroke="rgba(127,231,255,0.6)" stroke-width="1.5"/>
<path d="M 15 684 H 120" stroke="rgba(127,231,255,0.28)" stroke-width="1.4"/><rect x="18" y="18" width="944" height="664" rx="14" fill="rgba(8,18,40,0.62)" stroke="rgba(127,231,255,0.18)"/><circle cx="490" cy="350" r="56" stroke="rgba(127,231,255,0.45)" stroke-width="6" stroke-dasharray="40 18"/><circle cx="490" cy="350" r="92" stroke="rgba(127,231,255,0.18)" stroke-width="2"/>
</svg>