<svg xmlns="http://www.w3.org/2000/svg" width="980" height="88" viewBox="0 0 980 88" fill="none">
<defs>
  <linearGradient id="lineBlue" x1="0" y1="0" x2="980" y2="88" gradientUnits="userSpaceOnUse">
    <stop stop-color="#7FE7FF"/>
    <stop offset="0.55" stop-color="#64B8FF"/>
    <stop offset="1" stop-color="#7D9CFF"/>
  </linearGradient>
  <linearGradient id="panelGlow" x1="0" y1="0" x2="0" y2="88" gradientUnits="userSpaceOnUse">
    <stop stop-color="rgba(40,130,255,0.20)"/>
    <stop offset="1" stop-color="rgba(8,26,68,0.12)"/>
  </linearGradient>
  <filter id="softGlow" x="-20%" y="-20%" width="140%" height="140%">
    <feGaussianBlur stdDeviation="3" result="blur"/>
    <feMerge>
      <feMergeNode in="blur"/>
      <feMergeNode in="SourceGraphic"/>
    </feMerge>
  </filter>
</defs>
<rect width="980" height="88" fill="none"/>
<polygon points="10,1 970,1 979,10 979,78 970,87 10,87 1,78 1,10" stroke="url(#lineBlue)" stroke-width="2.5" fill="rgba(8,20,42,0.52)"/>
<polygon points="16,8 964,8 972,16 972,72 964,80 16,80 8,72 8,16" stroke="rgba(125,210,255,0.22)" stroke-width="1.2" fill="rgba(16,40,74,0.18)"/>
<circle cx="954" cy="18" r="3" fill="#8FE6FF" filter="url(#softGlow)"/>
<path d="M 935 18 H 966" stroke="rgba(127,231,255,0.6)" stroke-width="1.5"/>
<path d="M 15 72 H 120" stroke="rgba(127,231,255,0.28)" stroke-width="1.4"/><rect x="24" y="24" width="190" height="40" rx="10" stroke="rgba(127,231,255,0.32)" fill="rgba(30,70,120,0.12)"/><rect x="228" y="24" width="190" height="40" rx="10" stroke="rgba(127,231,255,0.32)" fill="rgba(30,70,120,0.12)"/><rect x="432" y="24" width="300" height="40" rx="10" stroke="rgba(127,231,255,0.32)" fill="rgba(30,70,120,0.12)"/><circle cx="765" cy="44" r="13" stroke="rgba(127,231,255,0.48)" stroke-width="2"/><path d="M 773 52 L 788 67" stroke="rgba(127,231,255,0.48)" stroke-width="2"/>
</svg>