<svg xmlns="http://www.w3.org/2000/svg" width="980" height="74" viewBox="0 0 980 74" fill="none">
<defs>
  <linearGradient id="lineBlue" x1="0" y1="0" x2="980" y2="74" gradientUnits="userSpaceOnUse">
    <stop stop-color="#7FE7FF"/>
    <stop offset="0.55" stop-color="#64B8FF"/>
    <stop offset="1" stop-color="#7D9CFF"/>
  </linearGradient>
  <linearGradient id="panelGlow" x1="0" y1="0" x2="0" y2="74" gradientUnits="userSpaceOnUse">
    <stop stop-color="rgba(40,130,255,0.20)"/>
    <stop offset="1" stop-color="rgba(8,26,68,0.12)"/>
  </linearGradient>
  <filter id="softGlow" x="-20%" y="-20%" width="140%" height="140%">
    <feGaussianBlur stdDeviation="3" result="blur"/>
    <feMerge>
      <feMergeNode in="blur"/>
      <feMergeNode in="SourceGraphic"/>
    </feMerge>
  </filter>
</defs>
<rect width="980" height="74" fill="none"/>
<polygon points="10,1 970,1 979,10 979,64 970,73 10,73 1,64 1,10" stroke="url(#lineBlue)" stroke-width="2.5" fill="rgba(8,20,42,0.52)"/>
<circle cx="954" cy="18" r="3" fill="#8FE6FF" filter="url(#softGlow)"/>
<path d="M 935 18 H 966" stroke="rgba(127,231,255,0.6)" stroke-width="1.5"/>
<path d="M 15 58 H 120" stroke="rgba(127,231,255,0.28)" stroke-width="1.4"/><rect x="20" y="20" width="96" height="34" rx="16" stroke="rgba(127,231,255,0.28)" fill="rgba(25,58,98,0.10)"/><rect x="138" y="20" width="96" height="34" rx="16" stroke="rgba(127,231,255,0.28)" fill="rgba(25,58,98,0.10)"/><rect x="256" y="20" width="96" height="34" rx="16" stroke="rgba(127,231,255,0.28)" fill="rgba(25,58,98,0.10)"/><rect x="374" y="20" width="96" height="34" rx="16" stroke="rgba(127,231,255,0.28)" fill="rgba(25,58,98,0.10)"/><rect x="492" y="20" width="96" height="34" rx="16" stroke="rgba(127,231,255,0.28)" fill="rgba(25,58,98,0.10)"/><rect x="610" y="20" width="96" height="34" rx="16" stroke="rgba(127,231,255,0.28)" fill="rgba(25,58,98,0.10)"/><rect x="728" y="20" width="96" height="34" rx="16" stroke="rgba(127,231,255,0.28)" fill="rgba(25,58,98,0.10)"/>
</svg>