<svg xmlns="http://www.w3.org/2000/svg" width="320" height="840" viewBox="0 0 320 840" fill="none">
<defs>
  <linearGradient id="lineBlue" x1="0" y1="0" x2="320" y2="840" gradientUnits="userSpaceOnUse">
    <stop stop-color="#7FE7FF"/>
    <stop offset="0.55" stop-color="#64B8FF"/>
    <stop offset="1" stop-color="#7D9CFF"/>
  </linearGradient>
  <linearGradient id="panelGlow" x1="0" y1="0" x2="0" y2="840" gradientUnits="userSpaceOnUse">
    <stop stop-color="rgba(40,130,255,0.20)"/>
    <stop offset="1" stop-color="rgba(8,26,68,0.12)"/>
  </linearGradient>
  <filter id="softGlow" x="-20%" y="-20%" width="140%" height="140%">
    <feGaussianBlur stdDeviation="3" result="blur"/>
    <feMerge>
      <feMergeNode in="blur"/>
      <feMergeNode in="SourceGraphic"/>
    </feMerge>
  </filter>
</defs>
<rect width="320" height="840" fill="none"/>
<polygon points="10,1 310,1 319,10 319,830 310,839 10,839 1,830 1,10" stroke="url(#lineBlue)" stroke-width="2.5" fill="rgba(8,20,42,0.52)"/>
<polygon points="16,8 304,8 312,16 312,824 304,832 16,832 8,824 8,16" stroke="rgba(125,210,255,0.22)" stroke-width="1.2" fill="rgba(16,40,74,0.18)"/>
<path d="M 18 14 H 176.0 L 192.0 28 H 18 Z" fill="rgba(84,180,255,0.10)" stroke="rgba(125,210,255,0.35)" stroke-width="1"/>
<circle cx="294" cy="18" r="3" fill="#8FE6FF" filter="url(#softGlow)"/>
<path d="M 275 18 H 306" stroke="rgba(127,231,255,0.6)" stroke-width="1.5"/>
<path d="M 15 824 H 120" stroke="rgba(127,231,255,0.28)" stroke-width="1.4"/><rect x="24" y="78" width="272" height="90" rx="10" stroke="rgba(127,231,255,0.20)" fill="rgba(16,38,70,0.10)"/><rect x="24" y="188" width="272" height="90" rx="10" stroke="rgba(127,231,255,0.20)" fill="rgba(16,38,70,0.10)"/><rect x="24" y="298" width="272" height="300" rx="10" stroke="rgba(127,231,255,0.20)" fill="rgba(16,38,70,0.10)"/><rect x="24" y="618" width="272" height="90" rx="10" stroke="rgba(127,231,255,0.20)" fill="rgba(16,38,70,0.10)"/>
</svg>