<svg xmlns="http://www.w3.org/2000/svg" width="280" height="120" viewBox="0 0 280 120" fill="none">
<defs>
  <linearGradient id="lineBlue" x1="0" y1="0" x2="280" y2="120" gradientUnits="userSpaceOnUse">
    <stop stop-color="#7FE7FF"/>
    <stop offset="0.55" stop-color="#64B8FF"/>
    <stop offset="1" stop-color="#7D9CFF"/>
  </linearGradient>
  <linearGradient id="panelGlow" x1="0" y1="0" x2="0" y2="120" gradientUnits="userSpaceOnUse">
    <stop stop-color="rgba(40,130,255,0.20)"/>
    <stop offset="1" stop-color="rgba(8,26,68,0.12)"/>
  </linearGradient>
  <filter id="softGlow" x="-20%" y="-20%" width="140%" height="140%">
    <feGaussianBlur stdDeviation="3" result="blur"/>
    <feMerge>
      <feMergeNode in="blur"/>
      <feMergeNode in="SourceGraphic"/>
    </feMerge>
  </filter>
</defs>
<rect width="280" height="120" fill="none"/>
<polygon points="10,1 270,1 279,10 279,110 270,119 10,119 1,110 1,10" stroke="url(#lineBlue)" stroke-width="2.5" fill="rgba(8,20,42,0.52)"/>
<polygon points="16,8 264,8 272,16 272,104 264,112 16,112 8,104 8,16" stroke="rgba(125,210,255,0.22)" stroke-width="1.2" fill="rgba(16,40,74,0.18)"/>
<path d="M 18 14 H 154.0 L 168.0 28 H 18 Z" fill="rgba(84,180,255,0.10)" stroke="rgba(125,210,255,0.35)" stroke-width="1"/>
<circle cx="254" cy="18" r="3" fill="#8FE6FF" filter="url(#softGlow)"/>
<path d="M 235 18 H 266" stroke="rgba(127,231,255,0.6)" stroke-width="1.5"/>
<path d="M 15 104 H 120" stroke="rgba(127,231,255,0.28)" stroke-width="1.4"/><path d="M 44 44 H 80 L 92 78 H 118" stroke="rgba(127,231,255,0.62)" stroke-width="3" fill="none"/><circle cx="78" cy="90" r="6" fill="#8FE6FF"/><circle cx="104" cy="90" r="6" fill="#8FE6FF"/>
</svg>