<svg xmlns="http://www.w3.org/2000/svg" width="300" height="900" viewBox="0 0 300 900" fill="none">
<defs>
  <linearGradient id="lineBlue" x1="0" y1="0" x2="300" y2="900" gradientUnits="userSpaceOnUse">
    <stop stop-color="#7FE7FF"/>
    <stop offset="0.55" stop-color="#64B8FF"/>
    <stop offset="1" stop-color="#7D9CFF"/>
  </linearGradient>
  <linearGradient id="panelGlow" x1="0" y1="0" x2="0" y2="900" gradientUnits="userSpaceOnUse">
    <stop stop-color="rgba(40,130,255,0.20)"/>
    <stop offset="1" stop-color="rgba(8,26,68,0.12)"/>
  </linearGradient>
  <filter id="softGlow" x="-20%" y="-20%" width="140%" height="140%">
    <feGaussianBlur stdDeviation="3" result="blur"/>
    <feMerge>
      <feMergeNode in="blur"/>
      <feMergeNode in="SourceGraphic"/>
    </feMerge>
  </filter>
</defs>
<rect width="300" height="900" fill="none"/>
<polygon points="10,1 290,1 299,10 299,890 290,899 10,899 1,890 1,10" stroke="url(#lineBlue)" stroke-width="2.5" fill="rgba(8,20,42,0.52)"/>
<polygon points="16,8 284,8 292,16 292,884 284,892 16,892 8,884 8,16" stroke="rgba(125,210,255,0.22)" stroke-width="1.2" fill="rgba(16,40,74,0.18)"/>
<path d="M 18 14 H 165.0 L 180.0 28 H 18 Z" fill="rgba(84,180,255,0.10)" stroke="rgba(125,210,255,0.35)" stroke-width="1"/>
<circle cx="274" cy="18" r="3" fill="#8FE6FF" filter="url(#softGlow)"/>
<path d="M 255 18 H 286" stroke="rgba(127,231,255,0.6)" stroke-width="1.5"/>
<path d="M 15 884 H 120" stroke="rgba(127,231,255,0.28)" stroke-width="1.4"/>
</svg>