<?xml version="1.0" encoding="UTF-8"?>
<svg xmlns="http://www.w3.org/2000/svg" width="180" height="180" viewBox="0 0 180 180" fill="none">
<defs>
  <linearGradient id="strokeGrad" x1="0" y1="0" x2="1" y2="1">
    <stop offset="0%" stop-color="#b8f7ff"/>
    <stop offset="28%" stop-color="#6dd7ff"/>
    <stop offset="68%" stop-color="#2a7fd0"/>
    <stop offset="100%" stop-color="#d7ffff"/>
  </linearGradient>
  <linearGradient id="fillGrad" x1="0" y1="0" x2="0" y2="1">
    <stop offset="0%" stop-color="#10253f" stop-opacity="0.94"/>
    <stop offset="55%" stop-color="#0a1730" stop-opacity="0.9"/>
    <stop offset="100%" stop-color="#06111f" stop-opacity="0.96"/>
  </linearGradient>
  <linearGradient id="innerGrad" x1="0" y1="0" x2="1" y2="0">
    <stop offset="0%" stop-color="#dbffff" stop-opacity="0.42"/>
    <stop offset="100%" stop-color="#5fc7ff" stop-opacity="0.08"/>
  </linearGradient>
  <radialGradient id="glowCore" cx="50%" cy="50%" r="50%">
    <stop offset="0%" stop-color="#bfffff" stop-opacity="0.38"/>
    <stop offset="55%" stop-color="#59c9ff" stop-opacity="0.12"/>
    <stop offset="100%" stop-color="#10375f" stop-opacity="0"/>
  </radialGradient>
  <filter id="softGlow" x="-40%" y="-40%" width="180%" height="180%">
    <feGaussianBlur stdDeviation="7" result="b"/>
    <feMerge>
      <feMergeNode in="b"/>
      <feMergeNode in="SourceGraphic"/>
    </feMerge>
  </filter>
  <filter id="hardGlow" x="-40%" y="-40%" width="180%" height="180%">
    <feGaussianBlur stdDeviation="3" result="b"/>
    <feMerge>
      <feMergeNode in="b"/>
      <feMergeNode in="SourceGraphic"/>
    </feMerge>
  </filter>
  <pattern id="scan" width="8" height="8" patternUnits="userSpaceOnUse">
    <rect width="8" height="8" fill="transparent"/>
    <rect width="8" height="1" fill="#d2ffff" opacity="0.06"/>
  </pattern>
</defs>
  <circle cx="90" cy="90" r="76" stroke="#cfffff" stroke-opacity="0.68" stroke-width="2.5" filter="url(#softGlow)"/>
  <circle cx="90" cy="90" r="62" stroke="#6dd7ff" stroke-opacity="0.45" stroke-width="2"/>
  <circle cx="90" cy="90" r="82" stroke="#88edff" stroke-opacity="0.34" stroke-width="2" stroke-dasharray="8 14"/>
  <path d="M90 8v16M90 156v16M8 90h16M156 90h16M32 32l10 10M138 138l10 10M148 32l-10 10M42 138l-10 10" stroke="#b9ffff" stroke-opacity="0.62" stroke-width="3" stroke-linecap="round"/>
</svg>
