<?xml version="1.0" encoding="UTF-8"?>
<svg xmlns="http://www.w3.org/2000/svg" width="960" height="640" viewBox="0 0 960 640" fill="none">
<defs>
  <linearGradient id="strokeGrad" x1="0" y1="0" x2="1" y2="1">
    <stop offset="0%" stop-color="#b8f7ff"/>
    <stop offset="28%" stop-color="#6dd7ff"/>
    <stop offset="68%" stop-color="#2a7fd0"/>
    <stop offset="100%" stop-color="#d7ffff"/>
  </linearGradient>
  <linearGradient id="fillGrad" x1="0" y1="0" x2="0" y2="1">
    <stop offset="0%" stop-color="#10253f" stop-opacity="0.94"/>
    <stop offset="55%" stop-color="#0a1730" stop-opacity="0.9"/>
    <stop offset="100%" stop-color="#06111f" stop-opacity="0.96"/>
  </linearGradient>
  <linearGradient id="innerGrad" x1="0" y1="0" x2="1" y2="0">
    <stop offset="0%" stop-color="#dbffff" stop-opacity="0.42"/>
    <stop offset="100%" stop-color="#5fc7ff" stop-opacity="0.08"/>
  </linearGradient>
  <radialGradient id="glowCore" cx="50%" cy="50%" r="50%">
    <stop offset="0%" stop-color="#bfffff" stop-opacity="0.38"/>
    <stop offset="55%" stop-color="#59c9ff" stop-opacity="0.12"/>
    <stop offset="100%" stop-color="#10375f" stop-opacity="0"/>
  </radialGradient>
  <filter id="softGlow" x="-40%" y="-40%" width="180%" height="180%">
    <feGaussianBlur stdDeviation="7" result="b"/>
    <feMerge>
      <feMergeNode in="b"/>
      <feMergeNode in="SourceGraphic"/>
    </feMerge>
  </filter>
  <filter id="hardGlow" x="-40%" y="-40%" width="180%" height="180%">
    <feGaussianBlur stdDeviation="3" result="b"/>
    <feMerge>
      <feMergeNode in="b"/>
      <feMergeNode in="SourceGraphic"/>
    </feMerge>
  </filter>
  <pattern id="scan" width="8" height="8" patternUnits="userSpaceOnUse">
    <rect width="8" height="8" fill="transparent"/>
    <rect width="8" height="1" fill="#d2ffff" opacity="0.06"/>
  </pattern>
</defs>
  <rect width="960" height="640" rx="22" fill="#06101b"/>
  <path d="M32 10H854l20 0 34 24H918l20 20V580l-22 22H102l-28 0-34-24H32l-20-20V54l22-22Z" fill="url(#fillGrad)" stroke="url(#strokeGrad)" stroke-width="4"/>
  <path d="M60 42H882l18 0 16 12H900l-14 14H74L58 54Z" fill="#0a1e36" stroke="url(#strokeGrad)" stroke-width="2.2"/>
  <path d="M72 92H888l14 0 10 10V564l-10 10H58l-10-10V106l10-10Z" fill="rgba(8,19,34,0.82)" stroke="url(#innerGrad)" stroke-width="1.6"/>
  <rect x="40" y="28" width="880" height="568" rx="16" fill="url(#scan)" opacity="0.32"/>
  <path d="M84 126H874" stroke="#8feeff" stroke-opacity="0.54" stroke-width="2"/>
  <path d="M88 166H872" stroke="#65bff6" stroke-opacity="0.28" stroke-width="1.5"/>
  <path d="M88 262H872" stroke="#65bff6" stroke-opacity="0.22" stroke-width="1.5"/>
  <path d="M88 358H872" stroke="#65bff6" stroke-opacity="0.22" stroke-width="1.5"/>
  <path d="M88 454H872" stroke="#65bff6" stroke-opacity="0.22" stroke-width="1.5"/>
  <circle cx="890" cy="56" r="4.5" fill="#cfffff" filter="url(#hardGlow)"/>
  <circle cx="874" cy="56" r="2.4" fill="#6dd7ff"/>
  <path d="M110 110H272l16 0 16 12H304l-12 12H118l-10-10Z" fill="#0b1f37" stroke="#aef8ff" stroke-opacity="0.65" stroke-width="1.8"/>
</svg>
