<?xml version="1.0" encoding="UTF-8"?>
<svg xmlns="http://www.w3.org/2000/svg" width="900" height="176" viewBox="0 0 900 176" fill="none">
<defs>
  <linearGradient id="strokeGrad" x1="0" y1="0" x2="1" y2="1">
    <stop offset="0%" stop-color="#b8f7ff"/>
    <stop offset="28%" stop-color="#6dd7ff"/>
    <stop offset="68%" stop-color="#2a7fd0"/>
    <stop offset="100%" stop-color="#d7ffff"/>
  </linearGradient>
  <linearGradient id="fillGrad" x1="0" y1="0" x2="0" y2="1">
    <stop offset="0%" stop-color="#10253f" stop-opacity="0.94"/>
    <stop offset="55%" stop-color="#0a1730" stop-opacity="0.9"/>
    <stop offset="100%" stop-color="#06111f" stop-opacity="0.96"/>
  </linearGradient>
  <linearGradient id="innerGrad" x1="0" y1="0" x2="1" y2="0">
    <stop offset="0%" stop-color="#dbffff" stop-opacity="0.42"/>
    <stop offset="100%" stop-color="#5fc7ff" stop-opacity="0.08"/>
  </linearGradient>
  <radialGradient id="glowCore" cx="50%" cy="50%" r="50%">
    <stop offset="0%" stop-color="#bfffff" stop-opacity="0.38"/>
    <stop offset="55%" stop-color="#59c9ff" stop-opacity="0.12"/>
    <stop offset="100%" stop-color="#10375f" stop-opacity="0"/>
  </radialGradient>
  <filter id="softGlow" x="-40%" y="-40%" width="180%" height="180%">
    <feGaussianBlur stdDeviation="7" result="b"/>
    <feMerge>
      <feMergeNode in="b"/>
      <feMergeNode in="SourceGraphic"/>
    </feMerge>
  </filter>
  <filter id="hardGlow" x="-40%" y="-40%" width="180%" height="180%">
    <feGaussianBlur stdDeviation="3" result="b"/>
    <feMerge>
      <feMergeNode in="b"/>
      <feMergeNode in="SourceGraphic"/>
    </feMerge>
  </filter>
  <pattern id="scan" width="8" height="8" patternUnits="userSpaceOnUse">
    <rect width="8" height="8" fill="transparent"/>
    <rect width="8" height="1" fill="#d2ffff" opacity="0.06"/>
  </pattern>
</defs>
  <path d="M14 14H886V162H28l-14-14Z" fill="url(#fillGrad)" stroke="url(#strokeGrad)" stroke-width="3"/>
  <path d="M34 36H866V142H34Z" fill="rgba(7,17,31,0.58)" stroke="url(#innerGrad)" stroke-width="1.4"/>
  <path d="M34 66H866" stroke="#92eeff" stroke-opacity="0.4" stroke-width="1.5"/>
  <path d="M52 52H240l16 0 16 10H272l-12 10H58l-6-6Z" fill="#0b1e35" stroke="#aef8ff" stroke-opacity="0.6" stroke-width="1.5"/>
  <rect x="28" y="22" width="844" height="132" rx="10" fill="url(#scan)" opacity="0.22"/>
</svg>
