<?xml version="1.0" encoding="UTF-8"?>
<svg xmlns="http://www.w3.org/2000/svg" width="360" height="360" viewBox="0 0 360 360" fill="none">
<defs>
  <linearGradient id="panelStroke" x1="0" y1="0" x2="1" y2="1">
    <stop offset="0%" stop-color="#bff8ff"/>
    <stop offset="28%" stop-color="#67d5ff"/>
    <stop offset="68%" stop-color="#2c79cf"/>
    <stop offset="100%" stop-color="#dbffff"/>
  </linearGradient>
  <linearGradient id="panelFill" x1="0" y1="0" x2="0" y2="1">
    <stop offset="0%" stop-color="#10233c" stop-opacity="0.94"/>
    <stop offset="55%" stop-color="#0a1730" stop-opacity="0.88"/>
    <stop offset="100%" stop-color="#06111f" stop-opacity="0.96"/>
  </linearGradient>
  <linearGradient id="warmFill" x1="0" y1="0" x2="0" y2="1">
    <stop offset="0%" stop-color="#3b2810" stop-opacity="0.94"/>
    <stop offset="55%" stop-color="#211709" stop-opacity="0.88"/>
    <stop offset="100%" stop-color="#140d05" stop-opacity="0.96"/>
  </linearGradient>
  <linearGradient id="redFill" x1="0" y1="0" x2="0" y2="1">
    <stop offset="0%" stop-color="#3a121b" stop-opacity="0.96"/>
    <stop offset="55%" stop-color="#240b11" stop-opacity="0.9"/>
    <stop offset="100%" stop-color="#15070b" stop-opacity="0.98"/>
  </linearGradient>
  <linearGradient id="greenFill" x1="0" y1="0" x2="0" y2="1">
    <stop offset="0%" stop-color="#103428" stop-opacity="0.96"/>
    <stop offset="55%" stop-color="#0c221a" stop-opacity="0.9"/>
    <stop offset="100%" stop-color="#08150f" stop-opacity="0.98"/>
  </linearGradient>
  <linearGradient id="innerGlow" x1="0" y1="0" x2="1" y2="1">
    <stop offset="0%" stop-color="#dfffff" stop-opacity="0.40"/>
    <stop offset="100%" stop-color="#5bc5ff" stop-opacity="0.06"/>
  </linearGradient>
  <radialGradient id="glowCore" cx="50%" cy="50%" r="50%">
    <stop offset="0%" stop-color="#d8ffff" stop-opacity="0.38"/>
    <stop offset="55%" stop-color="#59c8ff" stop-opacity="0.12"/>
    <stop offset="100%" stop-color="#10365f" stop-opacity="0"/>
  </radialGradient>
  <radialGradient id="warnGlow" cx="50%" cy="50%" r="50%">
    <stop offset="0%" stop-color="#ffe9ad" stop-opacity="0.30"/>
    <stop offset="100%" stop-color="#ffb953" stop-opacity="0"/>
  </radialGradient>
  <radialGradient id="dangerGlow" cx="50%" cy="50%" r="50%">
    <stop offset="0%" stop-color="#ffb7cb" stop-opacity="0.30"/>
    <stop offset="100%" stop-color="#ff709a" stop-opacity="0"/>
  </radialGradient>
  <filter id="softGlow" x="-40%" y="-40%" width="180%" height="180%">
    <feGaussianBlur stdDeviation="7" result="blur"/>
    <feMerge><feMergeNode in="blur"/><feMergeNode in="SourceGraphic"/></feMerge>
  </filter>
  <filter id="tinyGlow" x="-40%" y="-40%" width="180%" height="180%">
    <feGaussianBlur stdDeviation="2.3" result="blur"/>
    <feMerge><feMergeNode in="blur"/><feMergeNode in="SourceGraphic"/></feMerge>
  </filter>
  <pattern id="scanlines" width="6" height="6" patternUnits="userSpaceOnUse">
    <rect width="6" height="6" fill="transparent"/>
    <rect width="6" height="1" fill="#cbffff" opacity="0.06"/>
  </pattern>
</defs>

  <g transform="translate(180 180)">
    <path d="M 20 -144 A 145 145 0 0 1 130 -62 L 88 -42 A 98 98 0 0 0 14 -96 Z" fill="rgba(10,17,28,0.8)" stroke="rgba(110,170,210,0.35)" stroke-width="3.2" filter="url(#softGlow)"/>
    <path d="M 34 -126 A 126 126 0 0 1 109 -70" stroke="#d9ffff" stroke-opacity="0.18" stroke-width="1.8" stroke-linecap="round"/>
    <path d="M 51 -118 L 72 -86" stroke="#86e9ff" stroke-opacity="0.45" stroke-width="1.4"/>
    <path d="M 73 -106 L 96 -78" stroke="#86e9ff" stroke-opacity="0.28" stroke-width="1.2"/>
    <circle cx="108" cy="-79" r="3.5" fill="#cfffff" opacity="0.18" filter="url(#tinyGlow)"/>
    <path d="M 12 -110 A 111 111 0 0 1 92 -54" stroke="#54c4ff" stroke-opacity="0.35" stroke-width="1.4" stroke-dasharray="4 8"/>
    
  </g>

</svg>
