<?xml version="1.0" encoding="UTF-8"?>
<svg xmlns="http://www.w3.org/2000/svg" width="320" height="58" viewBox="0 0 320 58" fill="none">
<defs>
  <linearGradient id="strokeGrad" x1="0" y1="0" x2="1" y2="1">
    <stop offset="0%" stop-color="#b8f7ff"/>
    <stop offset="28%" stop-color="#6dd7ff"/>
    <stop offset="68%" stop-color="#2a7fd0"/>
    <stop offset="100%" stop-color="#d7ffff"/>
  </linearGradient>
  <linearGradient id="fillGrad" x1="0" y1="0" x2="0" y2="1">
    <stop offset="0%" stop-color="#10253f" stop-opacity="0.94"/>
    <stop offset="55%" stop-color="#0a1730" stop-opacity="0.9"/>
    <stop offset="100%" stop-color="#06111f" stop-opacity="0.96"/>
  </linearGradient>
  <linearGradient id="innerGrad" x1="0" y1="0" x2="1" y2="0">
    <stop offset="0%" stop-color="#dbffff" stop-opacity="0.42"/>
    <stop offset="100%" stop-color="#5fc7ff" stop-opacity="0.08"/>
  </linearGradient>
  <radialGradient id="glowCore" cx="50%" cy="50%" r="50%">
    <stop offset="0%" stop-color="#bfffff" stop-opacity="0.38"/>
    <stop offset="55%" stop-color="#59c9ff" stop-opacity="0.12"/>
    <stop offset="100%" stop-color="#10375f" stop-opacity="0"/>
  </radialGradient>
  <filter id="softGlow" x="-40%" y="-40%" width="180%" height="180%">
    <feGaussianBlur stdDeviation="7" result="b"/>
    <feMerge>
      <feMergeNode in="b"/>
      <feMergeNode in="SourceGraphic"/>
    </feMerge>
  </filter>
  <filter id="hardGlow" x="-40%" y="-40%" width="180%" height="180%">
    <feGaussianBlur stdDeviation="3" result="b"/>
    <feMerge>
      <feMergeNode in="b"/>
      <feMergeNode in="SourceGraphic"/>
    </feMerge>
  </filter>
  <pattern id="scan" width="8" height="8" patternUnits="userSpaceOnUse">
    <rect width="8" height="8" fill="transparent"/>
    <rect width="8" height="1" fill="#d2ffff" opacity="0.06"/>
  </pattern>
</defs>
  <path d="M14 14H306V44H30l-16-15Z" fill="rgba(58,44,8,0.92)" stroke="#ffd676" stroke-width="2.2"/>
  <path d="M30 22H226l-14 7 14 7" stroke="#ffe9b0" stroke-opacity="0.55" stroke-width="1.6"/>
  <circle cx="284" cy="29" r="7" fill="#ffe084" fill-opacity="0.22" stroke="#ffe28e" stroke-width="1.2" filter="url(#hardGlow)"/>
  <path d="M284 22l1.8 4.8 5.2.3-4 3.4 1.3 5.1-4.3-2.8-4.3 2.8 1.3-5.1-4-3.4 5.2-.3L284 22Z" fill="#ffe084"/>
</svg>
