<svg xmlns="http://www.w3.org/2000/svg" width="820" height="360" viewBox="0 0 820 360" fill="none">
<defs>
  <linearGradient id="lineBlue" x1="0" y1="0" x2="820" y2="360" gradientUnits="userSpaceOnUse">
    <stop stop-color="#7FE7FF"/>
    <stop offset="0.55" stop-color="#64B8FF"/>
    <stop offset="1" stop-color="#7D9CFF"/>
  </linearGradient>
  <linearGradient id="panelGlow" x1="0" y1="0" x2="0" y2="360" gradientUnits="userSpaceOnUse">
    <stop stop-color="rgba(40,130,255,0.20)"/>
    <stop offset="1" stop-color="rgba(8,26,68,0.12)"/>
  </linearGradient>
  <filter id="softGlow" x="-20%" y="-20%" width="140%" height="140%">
    <feGaussianBlur stdDeviation="3" result="blur"/>
    <feMerge>
      <feMergeNode in="blur"/>
      <feMergeNode in="SourceGraphic"/>
    </feMerge>
  </filter>
</defs>
<rect width="820" height="360" fill="none"/>
<polygon points="10,1 810,1 819,10 819,350 810,359 10,359 1,350 1,10" stroke="url(#lineBlue)" stroke-width="2.5" fill="rgba(8,20,42,0.52)"/>
<polygon points="16,8 804,8 812,16 812,344 804,352 16,352 8,344 8,16" stroke="rgba(125,210,255,0.22)" stroke-width="1.2" fill="rgba(16,40,74,0.18)"/>
<circle cx="794" cy="18" r="3" fill="#8FE6FF" filter="url(#softGlow)"/>
<path d="M 775 18 H 806" stroke="rgba(127,231,255,0.6)" stroke-width="1.5"/>
<path d="M 15 344 H 120" stroke="rgba(127,231,255,0.28)" stroke-width="1.4"/><path d="M 40 180 H 780" stroke="rgba(127,231,255,0.16)" stroke-width="2"/><rect x="100" y="88" width="620" height="184" rx="12" stroke="rgba(127,231,255,0.25)" stroke-width="1.2" fill="rgba(24,58,96,0.12)"/>
</svg>