<svg xmlns="http://www.w3.org/2000/svg" width="1500" height="960" viewBox="0 0 1500 960" fill="none">
<defs>
  <linearGradient id="lineBlue" x1="0" y1="0" x2="1500" y2="960" gradientUnits="userSpaceOnUse">
    <stop stop-color="#7FE7FF"/>
    <stop offset="0.55" stop-color="#64B8FF"/>
    <stop offset="1" stop-color="#7D9CFF"/>
  </linearGradient>
  <linearGradient id="panelGlow" x1="0" y1="0" x2="0" y2="960" gradientUnits="userSpaceOnUse">
    <stop stop-color="rgba(40,130,255,0.20)"/>
    <stop offset="1" stop-color="rgba(8,26,68,0.12)"/>
  </linearGradient>
  <filter id="softGlow" x="-20%" y="-20%" width="140%" height="140%">
    <feGaussianBlur stdDeviation="3" result="blur"/>
    <feMerge>
      <feMergeNode in="blur"/>
      <feMergeNode in="SourceGraphic"/>
    </feMerge>
  </filter>
</defs>
<rect width="1500" height="960" fill="none"/>
<polygon points="10,1 1490,1 1499,10 1499,950 1490,959 10,959 1,950 1,10" stroke="url(#lineBlue)" stroke-width="2.5" fill="rgba(8,20,42,0.52)"/>
<polygon points="16,8 1484,8 1492,16 1492,944 1484,952 16,952 8,944 8,16" stroke="rgba(125,210,255,0.22)" stroke-width="1.2" fill="rgba(16,40,74,0.18)"/>
<circle cx="1474" cy="18" r="3" fill="#8FE6FF" filter="url(#softGlow)"/>
<path d="M 1455 18 H 1486" stroke="rgba(127,231,255,0.6)" stroke-width="1.5"/>
<path d="M 15 944 H 120" stroke="rgba(127,231,255,0.28)" stroke-width="1.4"/><circle cx="750" cy="470" r="210" fill="rgba(90,170,255,0.08)"/><circle cx="750" cy="470" r="260" stroke="rgba(127,231,255,0.18)" stroke-width="2"/><circle cx="750" cy="470" r="300" stroke="rgba(127,231,255,0.10)" stroke-width="1.2"/><path d="M 520 470 H 980 M 750 240 V 700" stroke="rgba(127,231,255,0.12)" stroke-width="2"/>
</svg>