<svg xmlns="http://www.w3.org/2000/svg" width="260" height="320" viewBox="0 0 260 320" fill="none">
<defs>
  <linearGradient id="lineBlue" x1="0" y1="0" x2="260" y2="320" gradientUnits="userSpaceOnUse">
    <stop stop-color="#7FE7FF"/>
    <stop offset="0.55" stop-color="#64B8FF"/>
    <stop offset="1" stop-color="#7D9CFF"/>
  </linearGradient>
  <linearGradient id="panelGlow" x1="0" y1="0" x2="0" y2="320" gradientUnits="userSpaceOnUse">
    <stop stop-color="rgba(40,130,255,0.20)"/>
    <stop offset="1" stop-color="rgba(8,26,68,0.12)"/>
  </linearGradient>
  <filter id="softGlow" x="-20%" y="-20%" width="140%" height="140%">
    <feGaussianBlur stdDeviation="3" result="blur"/>
    <feMerge>
      <feMergeNode in="blur"/>
      <feMergeNode in="SourceGraphic"/>
    </feMerge>
  </filter>
</defs>
<rect width="260" height="320" fill="none"/>
<polygon points="10,1 250,1 259,10 259,310 250,319 10,319 1,310 1,10" stroke="url(#lineBlue)" stroke-width="2.5" fill="rgba(8,20,42,0.52)"/>
<polygon points="16,8 244,8 252,16 252,304 244,312 16,312 8,304 8,16" stroke="rgba(125,210,255,0.22)" stroke-width="1.2" fill="rgba(16,40,74,0.18)"/>
<path d="M 18 14 H 143.0 L 156.0 28 H 18 Z" fill="rgba(84,180,255,0.10)" stroke="rgba(125,210,255,0.35)" stroke-width="1"/>
<circle cx="234" cy="18" r="3" fill="#8FE6FF" filter="url(#softGlow)"/>
<path d="M 215 18 H 246" stroke="rgba(127,231,255,0.6)" stroke-width="1.5"/>
<path d="M 15 304 H 120" stroke="rgba(127,231,255,0.28)" stroke-width="1.4"/><rect x="44" y="56" width="172" height="120" rx="14" stroke="rgba(127,231,255,0.24)" fill="rgba(18,42,76,0.10)"/><circle cx="130" cy="116" r="28" stroke="rgba(127,231,255,0.45)" stroke-width="2"/><path d="M 72 206 H 188" stroke="rgba(127,231,255,0.22)" stroke-width="2"/><path d="M 52 228 H 208" stroke="rgba(127,231,255,0.12)" stroke-width="2"/>
</svg>