<svg xmlns="http://www.w3.org/2000/svg" width="980" height="700" viewBox="0 0 980 700" fill="none">
<defs>
  <linearGradient id="lineBlue" x1="0" y1="0" x2="980" y2="700" gradientUnits="userSpaceOnUse">
    <stop stop-color="#7FE7FF"/>
    <stop offset="0.55" stop-color="#64B8FF"/>
    <stop offset="1" stop-color="#7D9CFF"/>
  </linearGradient>
  <linearGradient id="panelGlow" x1="0" y1="0" x2="0" y2="700" gradientUnits="userSpaceOnUse">
    <stop stop-color="rgba(40,130,255,0.20)"/>
    <stop offset="1" stop-color="rgba(8,26,68,0.12)"/>
  </linearGradient>
  <filter id="softGlow" x="-20%" y="-20%" width="140%" height="140%">
    <feGaussianBlur stdDeviation="3" result="blur"/>
    <feMerge>
      <feMergeNode in="blur"/>
      <feMergeNode in="SourceGraphic"/>
    </feMerge>
  </filter>
</defs>
<rect width="980" height="700" fill="none"/>
<polygon points="10,1 970,1 979,10 979,690 970,699 10,699 1,690 1,10" stroke="url(#lineBlue)" stroke-width="2.5" fill="rgba(8,20,42,0.52)"/>
<polygon points="16,8 964,8 972,16 972,684 964,692 16,692 8,684 8,16" stroke="rgba(125,210,255,0.22)" stroke-width="1.2" fill="rgba(16,40,74,0.18)"/>
<path d="M 18 14 H 539.0 L 588.0 28 H 18 Z" fill="rgba(84,180,255,0.10)" stroke="rgba(125,210,255,0.35)" stroke-width="1"/>
<circle cx="954" cy="18" r="3" fill="#8FE6FF" filter="url(#softGlow)"/>
<path d="M 935 18 H 966" stroke="rgba(127,231,255,0.6)" stroke-width="1.5"/>
<path d="M 15 684 H 120" stroke="rgba(127,231,255,0.28)" stroke-width="1.4"/><rect x="28" y="72" width="320" height="300" rx="16" stroke="rgba(127,231,255,0.20)" fill="rgba(26,56,96,0.10)"/><rect x="376" y="72" width="576" height="110" rx="12" stroke="rgba(127,231,255,0.20)" fill="rgba(16,38,70,0.10)"/><rect x="376" y="202" width="576" height="240" rx="12" stroke="rgba(127,231,255,0.20)" fill="rgba(16,38,70,0.10)"/><rect x="376" y="462" width="278" height="120" rx="12" stroke="rgba(127,231,255,0.20)" fill="rgba(16,38,70,0.10)"/><rect x="674" y="462" width="278" height="120" rx="12" stroke="rgba(127,231,255,0.20)" fill="rgba(16,38,70,0.10)"/>
</svg>