<svg xmlns="http://www.w3.org/2000/svg" width="940" height="150" viewBox="0 0 940 150" fill="none">
<defs>
  <linearGradient id="lineBlue" x1="0" y1="0" x2="940" y2="150" gradientUnits="userSpaceOnUse">
    <stop stop-color="#7FE7FF"/>
    <stop offset="0.55" stop-color="#64B8FF"/>
    <stop offset="1" stop-color="#7D9CFF"/>
  </linearGradient>
  <linearGradient id="panelGlow" x1="0" y1="0" x2="0" y2="150" gradientUnits="userSpaceOnUse">
    <stop stop-color="rgba(40,130,255,0.20)"/>
    <stop offset="1" stop-color="rgba(8,26,68,0.12)"/>
  </linearGradient>
  <filter id="softGlow" x="-20%" y="-20%" width="140%" height="140%">
    <feGaussianBlur stdDeviation="3" result="blur"/>
    <feMerge>
      <feMergeNode in="blur"/>
      <feMergeNode in="SourceGraphic"/>
    </feMerge>
  </filter>
</defs>
<rect width="940" height="150" fill="none"/>
<polygon points="10,1 930,1 939,10 939,140 930,149 10,149 1,140 1,10" stroke="url(#lineBlue)" stroke-width="2.5" fill="rgba(8,20,42,0.52)"/>
<polygon points="16,8 924,8 932,16 932,134 924,142 16,142 8,134 8,16" stroke="rgba(125,210,255,0.22)" stroke-width="1.2" fill="rgba(16,40,74,0.18)"/>
<path d="M 18 14 H 517.0 L 564.0 28 H 18 Z" fill="rgba(84,180,255,0.10)" stroke="rgba(125,210,255,0.35)" stroke-width="1"/>
<circle cx="914" cy="18" r="3" fill="#8FE6FF" filter="url(#softGlow)"/>
<path d="M 895 18 H 926" stroke="rgba(127,231,255,0.6)" stroke-width="1.5"/>
<path d="M 15 134 H 120" stroke="rgba(127,231,255,0.28)" stroke-width="1.4"/><rect x="22" y="28" width="130" height="94" rx="10" stroke="rgba(127,231,255,0.20)" fill="rgba(26,56,96,0.10)"/><path d="M 176 48 H 726" stroke="rgba(127,231,255,0.22)" stroke-width="2"/><path d="M 176 76 H 650" stroke="rgba(127,231,255,0.14)" stroke-width="2"/><rect x="772" y="42" width="146" height="70" rx="10" stroke="rgba(127,231,255,0.24)" fill="rgba(16,38,70,0.12)"/>
</svg>