<svg xmlns="http://www.w3.org/2000/svg" width="260" height="360" viewBox="0 0 260 360" fill="none">
<defs>
  <linearGradient id="lineBlue" x1="0" y1="0" x2="260" y2="360" gradientUnits="userSpaceOnUse">
    <stop stop-color="#7FE7FF"/>
    <stop offset="0.55" stop-color="#64B8FF"/>
    <stop offset="1" stop-color="#7D9CFF"/>
  </linearGradient>
  <linearGradient id="panelGlow" x1="0" y1="0" x2="0" y2="360" gradientUnits="userSpaceOnUse">
    <stop stop-color="rgba(40,130,255,0.20)"/>
    <stop offset="1" stop-color="rgba(8,26,68,0.12)"/>
  </linearGradient>
  <filter id="softGlow" x="-20%" y="-20%" width="140%" height="140%">
    <feGaussianBlur stdDeviation="3" result="blur"/>
    <feMerge>
      <feMergeNode in="blur"/>
      <feMergeNode in="SourceGraphic"/>
    </feMerge>
  </filter>
</defs>
<rect width="260" height="360" fill="none"/>
<polygon points="10,1 250,1 259,10 259,350 250,359 10,359 1,350 1,10" stroke="url(#lineBlue)" stroke-width="2.5" fill="rgba(8,20,42,0.52)"/>
<polygon points="16,8 244,8 252,16 252,344 244,352 16,352 8,344 8,16" stroke="rgba(125,210,255,0.22)" stroke-width="1.2" fill="rgba(16,40,74,0.18)"/>
<path d="M 18 14 H 143.0 L 156.0 28 H 18 Z" fill="rgba(84,180,255,0.10)" stroke="rgba(125,210,255,0.35)" stroke-width="1"/>
<circle cx="234" cy="18" r="3" fill="#8FE6FF" filter="url(#softGlow)"/>
<path d="M 215 18 H 246" stroke="rgba(127,231,255,0.6)" stroke-width="1.5"/>
<path d="M 15 344 H 120" stroke="rgba(127,231,255,0.28)" stroke-width="1.4"/><rect x="22" y="42" width="216" height="124" rx="12" stroke="rgba(127,231,255,0.20)" fill="rgba(26,56,96,0.10)"/><path d="M 36 62 H 224" stroke="rgba(127,231,255,0.16)" stroke-width="1.4"/><rect x="22" y="182" width="216" height="88" rx="10" stroke="rgba(127,231,255,0.20)" fill="rgba(16,38,70,0.10)"/><rect x="22" y="286" width="100" height="44" rx="8" stroke="rgba(127,231,255,0.24)" fill="rgba(16,38,70,0.12)"/><rect x="138" y="286" width="100" height="44" rx="8" stroke="rgba(127,231,255,0.24)" fill="rgba(16,38,70,0.12)"/>
</svg>