<svg xmlns="http://www.w3.org/2000/svg" width="320" height="220" viewBox="0 0 320 220" fill="none">
<defs>
  <linearGradient id="lineBlue" x1="0" y1="0" x2="320" y2="220" gradientUnits="userSpaceOnUse">
    <stop stop-color="#7FE7FF"/>
    <stop offset="0.55" stop-color="#64B8FF"/>
    <stop offset="1" stop-color="#7D9CFF"/>
  </linearGradient>
  <linearGradient id="panelGlow" x1="0" y1="0" x2="0" y2="220" gradientUnits="userSpaceOnUse">
    <stop stop-color="rgba(40,130,255,0.20)"/>
    <stop offset="1" stop-color="rgba(8,26,68,0.12)"/>
  </linearGradient>
  <filter id="softGlow" x="-20%" y="-20%" width="140%" height="140%">
    <feGaussianBlur stdDeviation="3" result="blur"/>
    <feMerge>
      <feMergeNode in="blur"/>
      <feMergeNode in="SourceGraphic"/>
    </feMerge>
  </filter>
</defs>
<rect width="320" height="220" fill="none"/>
<polygon points="10,1 310,1 319,10 319,210 310,219 10,219 1,210 1,10" stroke="url(#lineBlue)" stroke-width="2.5" fill="rgba(8,20,42,0.52)"/>
<polygon points="16,8 304,8 312,16 312,204 304,212 16,212 8,204 8,16" stroke="rgba(125,210,255,0.22)" stroke-width="1.2" fill="rgba(16,40,74,0.18)"/>
<path d="M 18 14 H 176.0 L 192.0 28 H 18 Z" fill="rgba(84,180,255,0.10)" stroke="rgba(125,210,255,0.35)" stroke-width="1"/>
<circle cx="294" cy="18" r="3" fill="#8FE6FF" filter="url(#softGlow)"/>
<path d="M 275 18 H 306" stroke="rgba(127,231,255,0.6)" stroke-width="1.5"/>
<path d="M 15 204 H 120" stroke="rgba(127,231,255,0.28)" stroke-width="1.4"/><rect x="34" y="52" width="252" height="98" rx="12" stroke="rgba(127,231,255,0.22)" fill="rgba(22,48,86,0.10)"/><rect x="34" y="166" width="120" height="28" rx="8" stroke="rgba(127,231,255,0.22)" fill="rgba(22,48,86,0.10)"/>
</svg>