<svg xmlns="http://www.w3.org/2000/svg" width="120" height="120" viewBox="0 0 120 120" fill="none">
<defs>
  <linearGradient id="lineBlue" x1="0" y1="0" x2="120" y2="120" gradientUnits="userSpaceOnUse">
    <stop stop-color="#7FE7FF"/>
    <stop offset="0.55" stop-color="#64B8FF"/>
    <stop offset="1" stop-color="#7D9CFF"/>
  </linearGradient>
  <linearGradient id="panelGlow" x1="0" y1="0" x2="0" y2="120" gradientUnits="userSpaceOnUse">
    <stop stop-color="rgba(40,130,255,0.20)"/>
    <stop offset="1" stop-color="rgba(8,26,68,0.12)"/>
  </linearGradient>
  <filter id="softGlow" x="-20%" y="-20%" width="140%" height="140%">
    <feGaussianBlur stdDeviation="3" result="blur"/>
    <feMerge>
      <feMergeNode in="blur"/>
      <feMergeNode in="SourceGraphic"/>
    </feMerge>
  </filter>
</defs>
<rect width="120" height="120" fill="none"/>
<polygon points="10,1 110,1 119,10 119,110 110,119 10,119 1,110 1,10" stroke="url(#lineBlue)" stroke-width="2.5" fill="rgba(8,20,42,0.52)"/>
<circle cx="94" cy="18" r="3" fill="#8FE6FF" filter="url(#softGlow)"/>
<path d="M 75 18 H 106" stroke="rgba(127,231,255,0.6)" stroke-width="1.5"/>
<path d="M 15 104 H 100" stroke="rgba(127,231,255,0.28)" stroke-width="1.4"/><path d="M60 20 L71 48 L101 48 L77 66 L86 94 L60 78 L34 94 L43 66 L19 48 L49 48 Z" stroke="rgba(127,231,255,0.62)" stroke-width="2" fill="rgba(80,160,255,0.10)"/>
</svg>