<svg xmlns="http://www.w3.org/2000/svg" width="220" height="72" viewBox="0 0 220 72" fill="none">
<defs>
  <linearGradient id="lineBlue" x1="0" y1="0" x2="220" y2="72" gradientUnits="userSpaceOnUse">
    <stop stop-color="#7FE7FF"/>
    <stop offset="0.55" stop-color="#64B8FF"/>
    <stop offset="1" stop-color="#7D9CFF"/>
  </linearGradient>
  <linearGradient id="panelGlow" x1="0" y1="0" x2="0" y2="72" gradientUnits="userSpaceOnUse">
    <stop stop-color="rgba(40,130,255,0.20)"/>
    <stop offset="1" stop-color="rgba(8,26,68,0.12)"/>
  </linearGradient>
  <filter id="softGlow" x="-20%" y="-20%" width="140%" height="140%">
    <feGaussianBlur stdDeviation="3" result="blur"/>
    <feMerge>
      <feMergeNode in="blur"/>
      <feMergeNode in="SourceGraphic"/>
    </feMerge>
  </filter>
</defs>
<rect width="220" height="72" fill="none"/>
<polygon points="10,1 210,1 219,10 219,62 210,71 10,71 1,62 1,10" stroke="url(#lineBlue)" stroke-width="2.5" fill="rgba(8,20,42,0.52)"/>
<circle cx="194" cy="18" r="3" fill="#8FE6FF" filter="url(#softGlow)"/>
<path d="M 175 18 H 206" stroke="rgba(127,231,255,0.6)" stroke-width="1.5"/>
<path d="M 15 56 H 120" stroke="rgba(127,231,255,0.28)" stroke-width="1.4"/><rect x="18" y="20" width="10" height="26" rx="2" stroke="rgba(127,231,255,0.35)" fill="rgba(80,160,255,0.06)"/><rect x="36" y="26" width="10" height="26" rx="2" stroke="rgba(127,231,255,0.35)" fill="rgba(80,160,255,0.06)"/><rect x="54" y="20" width="10" height="26" rx="2" stroke="rgba(127,231,255,0.35)" fill="rgba(80,160,255,0.06)"/><rect x="72" y="26" width="10" height="26" rx="2" stroke="rgba(127,231,255,0.35)" fill="rgba(80,160,255,0.06)"/><rect x="90" y="20" width="10" height="26" rx="2" stroke="rgba(127,231,255,0.35)" fill="rgba(80,160,255,0.06)"/><rect x="108" y="26" width="10" height="26" rx="2" stroke="rgba(127,231,255,0.35)" fill="rgba(80,160,255,0.06)"/><rect x="126" y="20" width="10" height="26" rx="2" stroke="rgba(127,231,255,0.35)" fill="rgba(80,160,255,0.06)"/><rect x="144" y="26" width="10" height="26" rx="2" stroke="rgba(127,231,255,0.35)" fill="rgba(80,160,255,0.06)"/><rect x="162" y="20" width="10" height="26" rx="2" stroke="rgba(127,231,255,0.35)" fill="rgba(80,160,255,0.06)"/><rect x="180" y="26" width="10" height="26" rx="2" stroke="rgba(127,231,255,0.35)" fill="rgba(80,160,255,0.06)"/>
</svg>