<svg xmlns="http://www.w3.org/2000/svg" width="74" height="74" viewBox="0 0 74 74" fill="none">
<defs>
  <linearGradient id="lineBlue" x1="0" y1="0" x2="74" y2="74" gradientUnits="userSpaceOnUse">
    <stop stop-color="#7FE7FF"/>
    <stop offset="0.55" stop-color="#64B8FF"/>
    <stop offset="1" stop-color="#7D9CFF"/>
  </linearGradient>
  <linearGradient id="panelGlow" x1="0" y1="0" x2="0" y2="74" gradientUnits="userSpaceOnUse">
    <stop stop-color="rgba(40,130,255,0.20)"/>
    <stop offset="1" stop-color="rgba(8,26,68,0.12)"/>
  </linearGradient>
  <filter id="softGlow" x="-20%" y="-20%" width="140%" height="140%">
    <feGaussianBlur stdDeviation="3" result="blur"/>
    <feMerge>
      <feMergeNode in="blur"/>
      <feMergeNode in="SourceGraphic"/>
    </feMerge>
  </filter>
</defs>
<rect width="74" height="74" fill="none"/>
<polygon points="10,1 64,1 73,10 73,64 64,73 10,73 1,64 1,10" stroke="url(#lineBlue)" stroke-width="2.5" fill="rgba(8,20,42,0.52)"/>
<circle cx="48" cy="18" r="3" fill="#8FE6FF" filter="url(#softGlow)"/>
<path d="M 29 18 H 60" stroke="rgba(127,231,255,0.6)" stroke-width="1.5"/>
<path d="M 15 58 H 54" stroke="rgba(127,231,255,0.28)" stroke-width="1.4"/><path d="M37 12 L44 29 L62 29 L48 40 L54 58 L37 48 L20 58 L26 40 L12 29 L30 29 Z" stroke="rgba(127,231,255,0.7)" stroke-width="2" fill="rgba(80,160,255,0.10)"/>
</svg>