<svg xmlns="http://www.w3.org/2000/svg" width="200" height="38" viewBox="0 0 200 38" fill="none">
<defs>
  <linearGradient id="lineBlue" x1="0" y1="0" x2="200" y2="38" gradientUnits="userSpaceOnUse">
    <stop stop-color="#7FE7FF"/>
    <stop offset="0.55" stop-color="#64B8FF"/>
    <stop offset="1" stop-color="#7D9CFF"/>
  </linearGradient>
  <linearGradient id="panelGlow" x1="0" y1="0" x2="0" y2="38" gradientUnits="userSpaceOnUse">
    <stop stop-color="rgba(40,130,255,0.20)"/>
    <stop offset="1" stop-color="rgba(8,26,68,0.12)"/>
  </linearGradient>
  <filter id="softGlow" x="-20%" y="-20%" width="140%" height="140%">
    <feGaussianBlur stdDeviation="3" result="blur"/>
    <feMerge>
      <feMergeNode in="blur"/>
      <feMergeNode in="SourceGraphic"/>
    </feMerge>
  </filter>
</defs>
<rect width="200" height="38" fill="none"/>
<polygon points="10,1 190,1 199,10 199,28 190,37 10,37 1,28 1,10" stroke="url(#lineBlue)" stroke-width="2.5" fill="rgba(8,20,42,0.52)"/>
<circle cx="174" cy="18" r="3" fill="#8FE6FF" filter="url(#softGlow)"/>
<path d="M 155 18 H 186" stroke="rgba(127,231,255,0.6)" stroke-width="1.5"/>
<path d="M 15 22 H 120" stroke="rgba(127,231,255,0.28)" stroke-width="1.4"/><circle cx="20" cy="19" r="5" fill="rgba(127,231,255,0.8)"/><circle cx="38" cy="19" r="5" fill="rgba(127,231,255,0.8)"/><circle cx="56" cy="19" r="5" fill="rgba(127,231,255,0.8)"/><circle cx="74" cy="19" r="5" fill="rgba(127,231,255,0.8)"/><circle cx="92" cy="19" r="5" fill="rgba(127,231,255,0.8)"/><circle cx="110" cy="19" r="5" fill="rgba(127,231,255,0.16)"/><circle cx="128" cy="19" r="5" fill="rgba(127,231,255,0.16)"/><circle cx="146" cy="19" r="5" fill="rgba(127,231,255,0.16)"/>
</svg>