<?xml version="1.0" encoding="UTF-8"?>
<svg width="1024" height="118" viewBox="0 0 1024 118" fill="none" xmlns="http://www.w3.org/2000/svg">
  <defs>
  <linearGradient id="panelStroke" x1="0" y1="0" x2="1024" y2="118" gradientUnits="userSpaceOnUse">
    <stop stop-color="#8DE8FF"/>
    <stop offset="0.28" stop-color="#54B9FF"/>
    <stop offset="0.68" stop-color="#2A6AB8"/>
    <stop offset="1" stop-color="#A7F7FF"/>
  </linearGradient>
  <linearGradient id="panelFill" x1="0" y1="0" x2="0" y2="118" gradientUnits="userSpaceOnUse">
    <stop stop-color="#10263C" stop-opacity="0.94"/>
    <stop offset="0.58" stop-color="#0A1730" stop-opacity="0.90"/>
    <stop offset="1" stop-color="#07111F" stop-opacity="0.97"/>
  </linearGradient>
  <linearGradient id="innerGlow" x1="0" y1="0" x2="1024" y2="118">
    <stop stop-color="#C6FCFF" stop-opacity="0.46"/>
    <stop offset="1" stop-color="#4AB8FF" stop-opacity="0.05"/>
  </linearGradient>
  <linearGradient id="headerGlow" x1="0" y1="0" x2="1024" y2="0" gradientUnits="userSpaceOnUse">
    <stop stop-color="#72F0FF" stop-opacity="0.2"/>
    <stop offset="0.5" stop-color="#8DE8FF" stop-opacity="0.55"/>
    <stop offset="1" stop-color="#72F0FF" stop-opacity="0.18"/>
  </linearGradient>
  <linearGradient id="dangerStroke" x1="0" y1="0" x2="1024" y2="0" gradientUnits="userSpaceOnUse">
    <stop stop-color="#FFB9B0"/>
    <stop offset="0.45" stop-color="#FF6E6E"/>
    <stop offset="1" stop-color="#FFA9CC"/>
  </linearGradient>
  <linearGradient id="dangerFill" x1="0" y1="0" x2="0" y2="118" gradientUnits="userSpaceOnUse">
    <stop stop-color="#301018" stop-opacity="0.92"/>
    <stop offset="1" stop-color="#16080F" stop-opacity="0.95"/>
  </linearGradient>
  <filter id="softGlow" x="-30%" y="-30%" width="160%" height="160%">
    <feGaussianBlur stdDeviation="7" result="blur"/>
    <feMerge><feMergeNode in="blur"/><feMergeNode in="SourceGraphic"/></feMerge>
  </filter>
  <filter id="tinyGlow" x="-20%" y="-20%" width="140%" height="140%">
    <feGaussianBlur stdDeviation="2" result="blur"/>
    <feMerge><feMergeNode in="blur"/><feMergeNode in="SourceGraphic"/></feMerge>
  </filter>
  <pattern id="scanlines" width="6" height="6" patternUnits="userSpaceOnUse">
    <rect width="6" height="6" fill="transparent"/>
    <rect y="0" width="6" height="1" fill="#C9FFFF" opacity="0.055"/>
    <rect y="3" width="6" height="1" fill="#9FEFFF" opacity="0.028"/>
  </pattern>
</defs>
  <title>Attack ledger row</title>
<rect x="0" y="0" width="1024" height="118" rx="18" fill="#06101B"/><rect x="12" y="12" width="1000" height="94" rx="16" fill="url(#panelFill)" stroke="url(#panelStroke)" stroke-width="3"/><rect x="24" y="24" width="976" height="70" rx="12" fill="url(#scanlines)" opacity="0.38"/><rect x="22" y="18" width="980" height="82" rx="12" fill="#091522" stroke="url(#panelStroke)" stroke-width="2"/><path d="M398 24 V94" stroke="#85EAFF" stroke-opacity="0.22" stroke-width="1"/><path d="M548 24 V94" stroke="#85EAFF" stroke-opacity="0.22" stroke-width="1"/><path d="M688 24 V94" stroke="#85EAFF" stroke-opacity="0.22" stroke-width="1"/><path d="M820 24 V94" stroke="#85EAFF" stroke-opacity="0.22" stroke-width="1"/><path d="M930 24 V94" stroke="#85EAFF" stroke-opacity="0.22" stroke-width="1"/><path d="M42 30 H978" stroke="#B8FBFF" stroke-opacity="0.35" stroke-width="1.2"/><path d="M42 54 H378" stroke="#6FDBFF" stroke-opacity="0.14" stroke-width="1.1"/><path d="M42 78 H978" stroke="#6FDBFF" stroke-opacity="0.14" stroke-width="1.1"/><rect x="22" y="18" width="980" height="82" rx="12" fill="url(#scanlines)" opacity="0.14"/>
</svg>
