<?xml version="1.0" encoding="UTF-8"?>
<svg width="1100" height="250" viewBox="0 0 1100 250" fill="none" xmlns="http://www.w3.org/2000/svg">
  <defs>
  <linearGradient id="panelStroke" x1="0" y1="0" x2="1100" y2="250" gradientUnits="userSpaceOnUse">
    <stop stop-color="#8DE8FF"/>
    <stop offset="0.28" stop-color="#54B9FF"/>
    <stop offset="0.68" stop-color="#2A6AB8"/>
    <stop offset="1" stop-color="#A7F7FF"/>
  </linearGradient>
  <linearGradient id="panelFill" x1="0" y1="0" x2="0" y2="250" gradientUnits="userSpaceOnUse">
    <stop stop-color="#10263C" stop-opacity="0.94"/>
    <stop offset="0.58" stop-color="#0A1730" stop-opacity="0.90"/>
    <stop offset="1" stop-color="#07111F" stop-opacity="0.97"/>
  </linearGradient>
  <linearGradient id="innerGlow" x1="0" y1="0" x2="1100" y2="250">
    <stop stop-color="#C6FCFF" stop-opacity="0.46"/>
    <stop offset="1" stop-color="#4AB8FF" stop-opacity="0.05"/>
  </linearGradient>
  <linearGradient id="headerGlow" x1="0" y1="0" x2="1100" y2="0" gradientUnits="userSpaceOnUse">
    <stop stop-color="#72F0FF" stop-opacity="0.2"/>
    <stop offset="0.5" stop-color="#8DE8FF" stop-opacity="0.55"/>
    <stop offset="1" stop-color="#72F0FF" stop-opacity="0.18"/>
  </linearGradient>
  <linearGradient id="dangerStroke" x1="0" y1="0" x2="1100" y2="0" gradientUnits="userSpaceOnUse">
    <stop stop-color="#FFB9B0"/>
    <stop offset="0.45" stop-color="#FF6E6E"/>
    <stop offset="1" stop-color="#FFA9CC"/>
  </linearGradient>
  <linearGradient id="dangerFill" x1="0" y1="0" x2="0" y2="250" gradientUnits="userSpaceOnUse">
    <stop stop-color="#301018" stop-opacity="0.92"/>
    <stop offset="1" stop-color="#16080F" stop-opacity="0.95"/>
  </linearGradient>
  <filter id="softGlow" x="-30%" y="-30%" width="160%" height="160%">
    <feGaussianBlur stdDeviation="7" result="blur"/>
    <feMerge><feMergeNode in="blur"/><feMergeNode in="SourceGraphic"/></feMerge>
  </filter>
  <filter id="tinyGlow" x="-20%" y="-20%" width="140%" height="140%">
    <feGaussianBlur stdDeviation="2" result="blur"/>
    <feMerge><feMergeNode in="blur"/><feMergeNode in="SourceGraphic"/></feMerge>
  </filter>
  <pattern id="scanlines" width="6" height="6" patternUnits="userSpaceOnUse">
    <rect width="6" height="6" fill="transparent"/>
    <rect y="0" width="6" height="1" fill="#C9FFFF" opacity="0.055"/>
    <rect y="3" width="6" height="1" fill="#9FEFFF" opacity="0.028"/>
  </pattern>
</defs>
  <title>Character record header plate</title>
<rect x="0" y="0" width="1100" height="250" rx="18" fill="#06101B"/><path d="M24 8 H994 l18 0 26 18 H1072 l16 16 V210 l-18 18 H92 l-22 0 -26 -18 H24 l-16 -16 V38 l18 -18 Z" fill="url(#panelFill)" stroke="url(#panelStroke)" stroke-width="3.5"/><rect x="24" y="24" width="1052" height="202" rx="12" fill="url(#scanlines)" opacity="0.38"/>
<path d="M40 30 H760 L842 76 L760 122 H40 Z" fill="#0A2035" stroke="url(#panelStroke)" stroke-width="2.5" filter="url(#softGlow)"/>
<path d="M64 54 H710" stroke="#BFFBFF" stroke-opacity="0.62" stroke-width="1.5"/>
<rect x="44" y="142" width="1012" height="66" rx="12" fill="#081523" stroke="url(#innerGlow)" stroke-width="1.4"/>
<path d="M270 142 V208 M430 142 V208 M590 142 V208 M750 142 V208 M910 142 V208" stroke="#84EAFF" stroke-opacity="0.24" stroke-width="1"/>
<rect x="874" y="34" width="182" height="86" rx="18" fill="#091420" stroke="url(#panelStroke)" stroke-width="2.5"/>
<path d="M896 58 H1034" stroke="#95F7FF" stroke-opacity="0.42" stroke-width="1.4"/>
<path d="M60 152 H248 M280 152 H408 M440 152 H568 M600 152 H728 M760 152 H888 M920 152 H1048" stroke="#9BFAFF" stroke-opacity="0.45" stroke-width="1.2"/>
<rect x="44" y="142" width="1012" height="66" rx="12" fill="url(#scanlines)" opacity="0.16"/>

</svg>
