<?xml version="1.0" encoding="UTF-8"?>
<svg width="720" height="112" viewBox="0 0 720 112" fill="none" xmlns="http://www.w3.org/2000/svg">
  <defs>
  <linearGradient id="panelStroke" x1="0" y1="0" x2="720" y2="112" gradientUnits="userSpaceOnUse">
    <stop stop-color="#8DE8FF"/>
    <stop offset="0.28" stop-color="#54B9FF"/>
    <stop offset="0.68" stop-color="#2A6AB8"/>
    <stop offset="1" stop-color="#A7F7FF"/>
  </linearGradient>
  <linearGradient id="panelFill" x1="0" y1="0" x2="0" y2="112" gradientUnits="userSpaceOnUse">
    <stop stop-color="#10263C" stop-opacity="0.94"/>
    <stop offset="0.58" stop-color="#0A1730" stop-opacity="0.90"/>
    <stop offset="1" stop-color="#07111F" stop-opacity="0.97"/>
  </linearGradient>
  <linearGradient id="innerGlow" x1="0" y1="0" x2="720" y2="112">
    <stop stop-color="#C6FCFF" stop-opacity="0.46"/>
    <stop offset="1" stop-color="#4AB8FF" stop-opacity="0.05"/>
  </linearGradient>
  <linearGradient id="headerGlow" x1="0" y1="0" x2="720" y2="0" gradientUnits="userSpaceOnUse">
    <stop stop-color="#72F0FF" stop-opacity="0.2"/>
    <stop offset="0.5" stop-color="#8DE8FF" stop-opacity="0.55"/>
    <stop offset="1" stop-color="#72F0FF" stop-opacity="0.18"/>
  </linearGradient>
  <linearGradient id="dangerStroke" x1="0" y1="0" x2="720" y2="0" gradientUnits="userSpaceOnUse">
    <stop stop-color="#FFB9B0"/>
    <stop offset="0.45" stop-color="#FF6E6E"/>
    <stop offset="1" stop-color="#FFA9CC"/>
  </linearGradient>
  <linearGradient id="dangerFill" x1="0" y1="0" x2="0" y2="112" gradientUnits="userSpaceOnUse">
    <stop stop-color="#301018" stop-opacity="0.92"/>
    <stop offset="1" stop-color="#16080F" stop-opacity="0.95"/>
  </linearGradient>
  <filter id="softGlow" x="-30%" y="-30%" width="160%" height="160%">
    <feGaussianBlur stdDeviation="7" result="blur"/>
    <feMerge><feMergeNode in="blur"/><feMergeNode in="SourceGraphic"/></feMerge>
  </filter>
  <filter id="tinyGlow" x="-20%" y="-20%" width="140%" height="140%">
    <feGaussianBlur stdDeviation="2" result="blur"/>
    <feMerge><feMergeNode in="blur"/><feMergeNode in="SourceGraphic"/></feMerge>
  </filter>
  <pattern id="scanlines" width="6" height="6" patternUnits="userSpaceOnUse">
    <rect width="6" height="6" fill="transparent"/>
    <rect y="0" width="6" height="1" fill="#C9FFFF" opacity="0.055"/>
    <rect y="3" width="6" height="1" fill="#9FEFFF" opacity="0.028"/>
  </pattern>
</defs>
  <title>Condition track box strip</title>
<rect x="0" y="0" width="720" height="112" rx="18" fill="#06101B"/><rect x="12" y="12" width="696" height="88" rx="16" fill="url(#panelFill)" stroke="url(#panelStroke)" stroke-width="3"/><rect x="24" y="24" width="672" height="64" rx="12" fill="url(#scanlines)" opacity="0.38"/><path d="M46 26 H116 l10 12 V74 l-10 12 H46 l-10 -12 V38 Z" fill="#0B1829" stroke="url(#panelStroke)" stroke-width="2.2"/><path d="M56 36 H102" stroke="#A8F7FF" stroke-opacity="0.28" stroke-width="1.2"/><circle cx="52" cy="56" r="2" fill="#8DE8FF" opacity="0.7"/><path d="M156 26 H226 l10 12 V74 l-10 12 H156 l-10 -12 V38 Z" fill="#0B1829" stroke="url(#panelStroke)" stroke-width="2.2"/><path d="M166 36 H212" stroke="#A8F7FF" stroke-opacity="0.28" stroke-width="1.2"/><circle cx="162" cy="56" r="2" fill="#8DE8FF" opacity="0.7"/><path d="M266 26 H336 l10 12 V74 l-10 12 H266 l-10 -12 V38 Z" fill="#0B1829" stroke="url(#panelStroke)" stroke-width="2.2"/><path d="M276 36 H322" stroke="#A8F7FF" stroke-opacity="0.28" stroke-width="1.2"/><circle cx="272" cy="56" r="2" fill="#8DE8FF" opacity="0.7"/><path d="M376 26 H446 l10 12 V74 l-10 12 H376 l-10 -12 V38 Z" fill="#0B1829" stroke="url(#panelStroke)" stroke-width="2.2"/><path d="M386 36 H432" stroke="#A8F7FF" stroke-opacity="0.28" stroke-width="1.2"/><circle cx="382" cy="56" r="2" fill="#8DE8FF" opacity="0.7"/><path d="M486 26 H556 l10 12 V74 l-10 12 H486 l-10 -12 V38 Z" fill="#0B1829" stroke="url(#panelStroke)" stroke-width="2.2"/><path d="M496 36 H542" stroke="#A8F7FF" stroke-opacity="0.28" stroke-width="1.2"/><circle cx="492" cy="56" r="2" fill="#8DE8FF" opacity="0.7"/><path d="M596 26 H666 l10 12 V74 l-10 12 H596 l-10 -12 V38 Z" fill="#0B1829" stroke="url(#panelStroke)" stroke-width="2.2"/><path d="M606 36 H652" stroke="#A8F7FF" stroke-opacity="0.28" stroke-width="1.2"/><circle cx="602" cy="56" r="2" fill="#8DE8FF" opacity="0.7"/><rect x="24" y="20" width="672" height="72" rx="10" fill="url(#scanlines)" opacity="0.18"/>
</svg>
