<?xml version="1.0" encoding="UTF-8"?>
<svg width="760" height="124" viewBox="0 0 760 124" fill="none" xmlns="http://www.w3.org/2000/svg">
  <defs>
  <linearGradient id="panelStroke" x1="0" y1="0" x2="760" y2="124" gradientUnits="userSpaceOnUse">
    <stop stop-color="#8DE8FF"/>
    <stop offset="0.28" stop-color="#54B9FF"/>
    <stop offset="0.68" stop-color="#2A6AB8"/>
    <stop offset="1" stop-color="#A7F7FF"/>
  </linearGradient>
  <linearGradient id="panelFill" x1="0" y1="0" x2="0" y2="124" gradientUnits="userSpaceOnUse">
    <stop stop-color="#10263C" stop-opacity="0.94"/>
    <stop offset="0.58" stop-color="#0A1730" stop-opacity="0.90"/>
    <stop offset="1" stop-color="#07111F" stop-opacity="0.97"/>
  </linearGradient>
  <linearGradient id="innerGlow" x1="0" y1="0" x2="760" y2="124">
    <stop stop-color="#C6FCFF" stop-opacity="0.46"/>
    <stop offset="1" stop-color="#4AB8FF" stop-opacity="0.05"/>
  </linearGradient>
  <linearGradient id="headerGlow" x1="0" y1="0" x2="760" y2="0" gradientUnits="userSpaceOnUse">
    <stop stop-color="#72F0FF" stop-opacity="0.2"/>
    <stop offset="0.5" stop-color="#8DE8FF" stop-opacity="0.55"/>
    <stop offset="1" stop-color="#72F0FF" stop-opacity="0.18"/>
  </linearGradient>
  <linearGradient id="dangerStroke" x1="0" y1="0" x2="760" y2="0" gradientUnits="userSpaceOnUse">
    <stop stop-color="#FFB9B0"/>
    <stop offset="0.45" stop-color="#FF6E6E"/>
    <stop offset="1" stop-color="#FFA9CC"/>
  </linearGradient>
  <linearGradient id="dangerFill" x1="0" y1="0" x2="0" y2="124" gradientUnits="userSpaceOnUse">
    <stop stop-color="#301018" stop-opacity="0.92"/>
    <stop offset="1" stop-color="#16080F" stop-opacity="0.95"/>
  </linearGradient>
  <filter id="softGlow" x="-30%" y="-30%" width="160%" height="160%">
    <feGaussianBlur stdDeviation="7" result="blur"/>
    <feMerge><feMergeNode in="blur"/><feMergeNode in="SourceGraphic"/></feMerge>
  </filter>
  <filter id="tinyGlow" x="-20%" y="-20%" width="140%" height="140%">
    <feGaussianBlur stdDeviation="2" result="blur"/>
    <feMerge><feMergeNode in="blur"/><feMergeNode in="SourceGraphic"/></feMerge>
  </filter>
  <pattern id="scanlines" width="6" height="6" patternUnits="userSpaceOnUse">
    <rect width="6" height="6" fill="transparent"/>
    <rect y="0" width="6" height="1" fill="#C9FFFF" opacity="0.055"/>
    <rect y="3" width="6" height="1" fill="#9FEFFF" opacity="0.028"/>
  </pattern>
</defs>
  <title>Dark side points box track</title>
<rect x="0" y="0" width="760" height="124" rx="18" fill="#06101B"/><rect x="12" y="12" width="736" height="100" rx="16" fill="url(#panelFill)" stroke="url(#panelStroke)" stroke-width="3"/><rect x="24" y="24" width="712" height="76" rx="12" fill="url(#scanlines)" opacity="0.38"/><rect x="28" y="34" width="22" height="52" rx="6" fill="url(#dangerFill)" stroke="url(#dangerStroke)" stroke-width="1.7"/><path d="M50 60 H58" stroke="#FF98A8" stroke-opacity="0.18" stroke-width="1"/><rect x="58" y="34" width="22" height="52" rx="6" fill="url(#dangerFill)" stroke="url(#dangerStroke)" stroke-width="1.7"/><path d="M80 60 H88" stroke="#FF98A8" stroke-opacity="0.18" stroke-width="1"/><rect x="88" y="34" width="22" height="52" rx="6" fill="url(#dangerFill)" stroke="url(#dangerStroke)" stroke-width="1.7"/><path d="M110 60 H118" stroke="#FF98A8" stroke-opacity="0.18" stroke-width="1"/><rect x="118" y="34" width="22" height="52" rx="6" fill="url(#dangerFill)" stroke="url(#dangerStroke)" stroke-width="1.7"/><path d="M140 60 H148" stroke="#FF98A8" stroke-opacity="0.18" stroke-width="1"/><rect x="148" y="34" width="22" height="52" rx="6" fill="url(#dangerFill)" stroke="url(#dangerStroke)" stroke-width="1.7"/><path d="M170 60 H178" stroke="#FF98A8" stroke-opacity="0.18" stroke-width="1"/><rect x="178" y="34" width="22" height="52" rx="6" fill="url(#dangerFill)" stroke="url(#dangerStroke)" stroke-width="1.7"/><path d="M200 60 H208" stroke="#FF98A8" stroke-opacity="0.18" stroke-width="1"/><rect x="208" y="34" width="22" height="52" rx="6" fill="url(#dangerFill)" stroke="url(#dangerStroke)" stroke-width="1.7"/><path d="M230 60 H238" stroke="#FF98A8" stroke-opacity="0.18" stroke-width="1"/><rect x="238" y="34" width="22" height="52" rx="6" fill="url(#dangerFill)" stroke="url(#dangerStroke)" stroke-width="1.7"/><path d="M260 60 H268" stroke="#FF98A8" stroke-opacity="0.18" stroke-width="1"/><rect x="268" y="34" width="22" height="52" rx="6" fill="url(#dangerFill)" stroke="url(#dangerStroke)" stroke-width="1.7"/><path d="M290 60 H298" stroke="#FF98A8" stroke-opacity="0.18" stroke-width="1"/><rect x="298" y="34" width="22" height="52" rx="6" fill="url(#dangerFill)" stroke="url(#dangerStroke)" stroke-width="1.7"/><path d="M320 60 H328" stroke="#FF98A8" stroke-opacity="0.18" stroke-width="1"/><rect x="328" y="34" width="22" height="52" rx="6" fill="url(#dangerFill)" stroke="url(#dangerStroke)" stroke-width="1.7"/><path d="M350 60 H358" stroke="#FF98A8" stroke-opacity="0.18" stroke-width="1"/><rect x="358" y="34" width="22" height="52" rx="6" fill="url(#dangerFill)" stroke="url(#dangerStroke)" stroke-width="1.7"/><path d="M380 60 H388" stroke="#FF98A8" stroke-opacity="0.18" stroke-width="1"/><rect x="388" y="34" width="22" height="52" rx="6" fill="url(#dangerFill)" stroke="url(#dangerStroke)" stroke-width="1.7"/><path d="M410 60 H418" stroke="#FF98A8" stroke-opacity="0.18" stroke-width="1"/><rect x="418" y="34" width="22" height="52" rx="6" fill="url(#dangerFill)" stroke="url(#dangerStroke)" stroke-width="1.7"/><path d="M440 60 H448" stroke="#FF98A8" stroke-opacity="0.18" stroke-width="1"/><rect x="448" y="34" width="22" height="52" rx="6" fill="url(#dangerFill)" stroke="url(#dangerStroke)" stroke-width="1.7"/><path d="M470 60 H478" stroke="#FF98A8" stroke-opacity="0.18" stroke-width="1"/><rect x="478" y="34" width="22" height="52" rx="6" fill="url(#dangerFill)" stroke="url(#dangerStroke)" stroke-width="1.7"/><path d="M500 60 H508" stroke="#FF98A8" stroke-opacity="0.18" stroke-width="1"/><rect x="508" y="34" width="22" height="52" rx="6" fill="url(#dangerFill)" stroke="url(#dangerStroke)" stroke-width="1.7"/><path d="M530 60 H538" stroke="#FF98A8" stroke-opacity="0.18" stroke-width="1"/><rect x="538" y="34" width="22" height="52" rx="6" fill="url(#dangerFill)" stroke="url(#dangerStroke)" stroke-width="1.7"/><path d="M560 60 H568" stroke="#FF98A8" stroke-opacity="0.18" stroke-width="1"/><rect x="568" y="34" width="22" height="52" rx="6" fill="url(#dangerFill)" stroke="url(#dangerStroke)" stroke-width="1.7"/><path d="M590 60 H598" stroke="#FF98A8" stroke-opacity="0.18" stroke-width="1"/><rect x="598" y="34" width="22" height="52" rx="6" fill="url(#dangerFill)" stroke="url(#dangerStroke)" stroke-width="1.7"/><path d="M30 24 H730" stroke="#FFCCD5" stroke-opacity="0.28" stroke-width="1.2"/><rect x="24" y="26" width="712" height="68" rx="12" fill="url(#scanlines)" opacity="0.12"/>
</svg>
