<?xml version="1.0" encoding="UTF-8"?>
<svg width="980" height="300" viewBox="0 0 980 300" fill="none" xmlns="http://www.w3.org/2000/svg">
  <defs>
  <linearGradient id="panelStroke" x1="0" y1="0" x2="980" y2="300" gradientUnits="userSpaceOnUse">
    <stop stop-color="#8DE8FF"/>
    <stop offset="0.28" stop-color="#54B9FF"/>
    <stop offset="0.68" stop-color="#2A6AB8"/>
    <stop offset="1" stop-color="#A7F7FF"/>
  </linearGradient>
  <linearGradient id="panelFill" x1="0" y1="0" x2="0" y2="300" gradientUnits="userSpaceOnUse">
    <stop stop-color="#10263C" stop-opacity="0.94"/>
    <stop offset="0.58" stop-color="#0A1730" stop-opacity="0.90"/>
    <stop offset="1" stop-color="#07111F" stop-opacity="0.97"/>
  </linearGradient>
  <linearGradient id="innerGlow" x1="0" y1="0" x2="980" y2="300">
    <stop stop-color="#C6FCFF" stop-opacity="0.46"/>
    <stop offset="1" stop-color="#4AB8FF" stop-opacity="0.05"/>
  </linearGradient>
  <linearGradient id="headerGlow" x1="0" y1="0" x2="980" y2="0" gradientUnits="userSpaceOnUse">
    <stop stop-color="#72F0FF" stop-opacity="0.2"/>
    <stop offset="0.5" stop-color="#8DE8FF" stop-opacity="0.55"/>
    <stop offset="1" stop-color="#72F0FF" stop-opacity="0.18"/>
  </linearGradient>
  <linearGradient id="dangerStroke" x1="0" y1="0" x2="980" y2="0" gradientUnits="userSpaceOnUse">
    <stop stop-color="#FFB9B0"/>
    <stop offset="0.45" stop-color="#FF6E6E"/>
    <stop offset="1" stop-color="#FFA9CC"/>
  </linearGradient>
  <linearGradient id="dangerFill" x1="0" y1="0" x2="0" y2="300" gradientUnits="userSpaceOnUse">
    <stop stop-color="#301018" stop-opacity="0.92"/>
    <stop offset="1" stop-color="#16080F" stop-opacity="0.95"/>
  </linearGradient>
  <filter id="softGlow" x="-30%" y="-30%" width="160%" height="160%">
    <feGaussianBlur stdDeviation="7" result="blur"/>
    <feMerge><feMergeNode in="blur"/><feMergeNode in="SourceGraphic"/></feMerge>
  </filter>
  <filter id="tinyGlow" x="-20%" y="-20%" width="140%" height="140%">
    <feGaussianBlur stdDeviation="2" result="blur"/>
    <feMerge><feMergeNode in="blur"/><feMergeNode in="SourceGraphic"/></feMerge>
  </filter>
  <pattern id="scanlines" width="6" height="6" patternUnits="userSpaceOnUse">
    <rect width="6" height="6" fill="transparent"/>
    <rect y="0" width="6" height="1" fill="#C9FFFF" opacity="0.055"/>
    <rect y="3" width="6" height="1" fill="#9FEFFF" opacity="0.028"/>
  </pattern>
</defs>
  <title>Relationships notebook panel</title>
<rect x="0" y="0" width="980" height="300" rx="18" fill="#06101B"/><path d="M24 8 H874 l18 0 26 18 H952 l16 16 V260 l-18 18 H92 l-22 0 -26 -18 H24 l-16 -16 V38 l18 -18 Z" fill="url(#panelFill)" stroke="url(#panelStroke)" stroke-width="3.5"/><rect x="24" y="24" width="932" height="252" rx="12" fill="url(#scanlines)" opacity="0.38"/><path d="M42 30 H830 l58 20 -58 20 H42" fill="#0A2034" stroke="url(#headerGlow)" stroke-width="2"/>
<path d="M58 38 H790" stroke="#9FEFFF" stroke-opacity="0.58" stroke-width="1.5"/>
<circle cx="922" cy="32" r="4" fill="#99F6FF" filter="url(#tinyGlow)"/>
<circle cx="908" cy="32" r="2" fill="#53B9FF"/><rect x="44" y="84" width="892" height="190" rx="14" fill="#081421" stroke="url(#panelStroke)" stroke-width="2"/><circle cx="80" cy="104" r="5" fill="#7BE9FF" fill-opacity="0.18" stroke="#BFFBFF" stroke-opacity="0.35"/><circle cx="112" cy="104" r="5" fill="#7BE9FF" fill-opacity="0.18" stroke="#BFFBFF" stroke-opacity="0.35"/><circle cx="144" cy="104" r="5" fill="#7BE9FF" fill-opacity="0.18" stroke="#BFFBFF" stroke-opacity="0.35"/><path d="M174 112 H910" stroke="#9BEFFF" stroke-opacity="0.17" stroke-width="1"/><path d="M174 136 H910" stroke="#9BEFFF" stroke-opacity="0.17" stroke-width="1"/><path d="M174 160 H910" stroke="#9BEFFF" stroke-opacity="0.17" stroke-width="1"/><path d="M174 184 H910" stroke="#9BEFFF" stroke-opacity="0.17" stroke-width="1"/><path d="M174 208 H910" stroke="#9BEFFF" stroke-opacity="0.17" stroke-width="1"/><path d="M174 232 H910" stroke="#9BEFFF" stroke-opacity="0.17" stroke-width="1"/><path d="M162 92 V268" stroke="#83E8FF" stroke-opacity="0.25" stroke-width="2"/><rect x="44" y="84" width="892" height="190" rx="14" fill="url(#scanlines)" opacity="0.14"/>
</svg>
