<svg xmlns="http://www.w3.org/2000/svg" width="220" height="80" viewBox="0 0 220 80">
    
    <defs>
      <linearGradient id="edge" x1="0" y1="0" x2="1" y2="1">
        <stop offset="0%" stop-color="#9de1ff" stop-opacity="0.95"/>
        <stop offset="60%" stop-color="#4cb0ff" stop-opacity="0.75"/>
        <stop offset="100%" stop-color="#1b4f9a" stop-opacity="0.7"/>
      </linearGradient>
      <linearGradient id="fill" x1="0" y1="0" x2="0" y2="1">
        <stop offset="0%" stop-color="#0f233d" stop-opacity="0.55"/>
        <stop offset="100%" stop-color="#06111f" stop-opacity="0.35"/>
      </linearGradient>
      <linearGradient id="glowLine" x1="0" y1="0" x2="1" y2="0">
        <stop offset="0%" stop-color="#7fd8ff" stop-opacity="0"/>
        <stop offset="50%" stop-color="#7fd8ff" stop-opacity="0.9"/>
        <stop offset="100%" stop-color="#7fd8ff" stop-opacity="0"/>
      </linearGradient>
      <filter id="glow" x="-40%" y="-40%" width="180%" height="180%">
        <feGaussianBlur stdDeviation="3" result="blur"/>
        <feMerge>
          <feMergeNode in="blur"/>
          <feMergeNode in="SourceGraphic"/>
        </feMerge>
      </filter>
      <pattern id="scan" x="0" y="0" width="8" height="8" patternUnits="userSpaceOnUse">
        <rect x="0" y="0" width="8" height="1" fill="#b4e6ff" opacity="0.06"/>
      </pattern>
      
    </defs>
    
    <rect x="0" y="0" width="220" height="80" fill="transparent"/>
    <rect x="2" y="2" width="216" height="76" rx="12" fill="url(#scan)" opacity="0.35" stroke="#67c4ff" stroke-opacity="0.25"/><rect x="42" y="16" width="136" height="48" rx="10" fill="none" stroke="#9ae4ff" stroke-width="2"/><path d="M58 16 V6 M58 64 V74 M162 16 V6 M162 64 V74 M42 30 H20 M178 30 H200 M42 50 H20 M178 50 H200" stroke="#64c0ff" stroke-width="2"/>
    </svg>