<svg xmlns="http://www.w3.org/2000/svg" width="220" height="80" viewBox="0 0 220 80">
    
    <defs>
      <linearGradient id="edge" x1="0" y1="0" x2="1" y2="1">
        <stop offset="0%" stop-color="#9de1ff" stop-opacity="0.95"/>
        <stop offset="60%" stop-color="#4cb0ff" stop-opacity="0.75"/>
        <stop offset="100%" stop-color="#1b4f9a" stop-opacity="0.7"/>
      </linearGradient>
      <linearGradient id="fill" x1="0" y1="0" x2="0" y2="1">
        <stop offset="0%" stop-color="#0f233d" stop-opacity="0.55"/>
        <stop offset="100%" stop-color="#06111f" stop-opacity="0.35"/>
      </linearGradient>
      <linearGradient id="glowLine" x1="0" y1="0" x2="1" y2="0">
        <stop offset="0%" stop-color="#7fd8ff" stop-opacity="0"/>
        <stop offset="50%" stop-color="#7fd8ff" stop-opacity="0.9"/>
        <stop offset="100%" stop-color="#7fd8ff" stop-opacity="0"/>
      </linearGradient>
      <filter id="glow" x="-40%" y="-40%" width="180%" height="180%">
        <feGaussianBlur stdDeviation="3" result="blur"/>
        <feMerge>
          <feMergeNode in="blur"/>
          <feMergeNode in="SourceGraphic"/>
        </feMerge>
      </filter>
      <pattern id="scan" x="0" y="0" width="8" height="8" patternUnits="userSpaceOnUse">
        <rect x="0" y="0" width="8" height="1" fill="#b4e6ff" opacity="0.06"/>
      </pattern>
      
    </defs>
    
    <rect x="0" y="0" width="220" height="80" fill="transparent"/>
    <rect x="2" y="2" width="216" height="76" rx="12" fill="none" stroke="#67c4ff" stroke-opacity="0.25"/><g opacity="0.22"><path d="M -40 78 L -12 2 H 10 L -18 78 Z" fill="#64c0ff"/><path d="M -6 78 L 22 2 H 44 L 16 78 Z" fill="#64c0ff"/><path d="M 28 78 L 56 2 H 78 L 50 78 Z" fill="#64c0ff"/><path d="M 62 78 L 90 2 H 112 L 84 78 Z" fill="#64c0ff"/><path d="M 96 78 L 124 2 H 146 L 118 78 Z" fill="#64c0ff"/><path d="M 130 78 L 158 2 H 180 L 152 78 Z" fill="#64c0ff"/><path d="M 164 78 L 192 2 H 214 L 186 78 Z" fill="#64c0ff"/><path d="M 198 78 L 226 2 H 248 L 220 78 Z" fill="#64c0ff"/></g>
    </svg>