<svg xmlns="http://www.w3.org/2000/svg" viewBox="0 0 400 130" role="img" aria-labelledby="title desc">
  <title id="title">Heavy Rifle</title>
  <desc id="desc">A reinforced heavy blaster rifle silhouette.</desc>
  <g fill="none" stroke="currentColor" stroke-width="3" stroke-linecap="round" stroke-linejoin="round">

<path d="M16 58h152l24-14h56l22 12h72l20 12h24l10 8-8 10h-30l-12 12h-92l-8-8h-54l-20 12H96l-18 14H42l12-24H16z"/>
<path d="M86 70l-22 36h20l20-26"/>
<path d="M130 44V28h42v16M194 44h32M250 54v28M274 54v28M298 54v28"/>
<rect x="174" y="80" width="28" height="12" rx="3"/>
<circle cx="206" cy="62" r="6"/>
<path d="M334 56h26"/>

  </g>
</svg>
