<?xml version="1.0" encoding="UTF-8"?>
<svg xmlns="http://www.w3.org/2000/svg" width="520" height="220" viewBox="0 0 520 220" fill="none">
<defs>
  <linearGradient id="panelStroke" x1="0" y1="0" x2="1" y2="1">
    <stop offset="0%" stop-color="#bff8ff"/>
    <stop offset="28%" stop-color="#67d5ff"/>
    <stop offset="68%" stop-color="#2c79cf"/>
    <stop offset="100%" stop-color="#dbffff"/>
  </linearGradient>
  <linearGradient id="panelFill" x1="0" y1="0" x2="0" y2="1">
    <stop offset="0%" stop-color="#10233c" stop-opacity="0.94"/>
    <stop offset="55%" stop-color="#0a1730" stop-opacity="0.88"/>
    <stop offset="100%" stop-color="#06111f" stop-opacity="0.96"/>
  </linearGradient>
  <linearGradient id="warmFill" x1="0" y1="0" x2="0" y2="1">
    <stop offset="0%" stop-color="#3b2810" stop-opacity="0.94"/>
    <stop offset="55%" stop-color="#211709" stop-opacity="0.88"/>
    <stop offset="100%" stop-color="#140d05" stop-opacity="0.96"/>
  </linearGradient>
  <linearGradient id="redFill" x1="0" y1="0" x2="0" y2="1">
    <stop offset="0%" stop-color="#3a121b" stop-opacity="0.96"/>
    <stop offset="55%" stop-color="#240b11" stop-opacity="0.9"/>
    <stop offset="100%" stop-color="#15070b" stop-opacity="0.98"/>
  </linearGradient>
  <linearGradient id="greenFill" x1="0" y1="0" x2="0" y2="1">
    <stop offset="0%" stop-color="#103428" stop-opacity="0.96"/>
    <stop offset="55%" stop-color="#0c221a" stop-opacity="0.9"/>
    <stop offset="100%" stop-color="#08150f" stop-opacity="0.98"/>
  </linearGradient>
  <linearGradient id="innerGlow" x1="0" y1="0" x2="1" y2="1">
    <stop offset="0%" stop-color="#dfffff" stop-opacity="0.40"/>
    <stop offset="100%" stop-color="#5bc5ff" stop-opacity="0.06"/>
  </linearGradient>
  <radialGradient id="glowCore" cx="50%" cy="50%" r="50%">
    <stop offset="0%" stop-color="#d8ffff" stop-opacity="0.38"/>
    <stop offset="55%" stop-color="#59c8ff" stop-opacity="0.12"/>
    <stop offset="100%" stop-color="#10365f" stop-opacity="0"/>
  </radialGradient>
  <radialGradient id="warnGlow" cx="50%" cy="50%" r="50%">
    <stop offset="0%" stop-color="#ffe9ad" stop-opacity="0.30"/>
    <stop offset="100%" stop-color="#ffb953" stop-opacity="0"/>
  </radialGradient>
  <radialGradient id="dangerGlow" cx="50%" cy="50%" r="50%">
    <stop offset="0%" stop-color="#ffb7cb" stop-opacity="0.30"/>
    <stop offset="100%" stop-color="#ff709a" stop-opacity="0"/>
  </radialGradient>
  <filter id="softGlow" x="-40%" y="-40%" width="180%" height="180%">
    <feGaussianBlur stdDeviation="7" result="blur"/>
    <feMerge><feMergeNode in="blur"/><feMergeNode in="SourceGraphic"/></feMerge>
  </filter>
  <filter id="tinyGlow" x="-40%" y="-40%" width="180%" height="180%">
    <feGaussianBlur stdDeviation="2.3" result="blur"/>
    <feMerge><feMergeNode in="blur"/><feMergeNode in="SourceGraphic"/></feMerge>
  </filter>
  <pattern id="scanlines" width="6" height="6" patternUnits="userSpaceOnUse">
    <rect width="6" height="6" fill="transparent"/>
    <rect width="6" height="1" fill="#cbffff" opacity="0.06"/>
  </pattern>
</defs>

  <rect width="520" height="220" rx="18" fill="#06101b"/>
  <path d="M20 8H442l18 0 24 18H500l12 12V182l-16 16H60l-20 0-24-18H20l-10-10V34l12-12Z" fill="url(#warmFill)" stroke="#ffd676" stroke-width="3.1"/>
  <path d="M38 34H468l12 12V176l-12 12H34l-12-12V46l12-12Z" fill="rgba(8,19,34,0.8)" stroke="url(#innerGlow)" stroke-width="1.5"/>
  <rect x="18" y="18" width="484" height="184" rx="12" fill="url(#scanlines)" opacity="0.28"/>
  <path d="M44 24H340l18 0 18 12H340l-14 12H58l-10-10Z" fill="#0b1f37" stroke="#ffd676" stroke-width="1.7"/>

</svg>
