<svg xmlns="http://www.w3.org/2000/svg" width="256" height="256" viewBox="0 0 256 256" fill="none">
  <defs>
    <linearGradient id="steel" x1="0" y1="0" x2="256" y2="256" gradientUnits="userSpaceOnUse">
      <stop stop-color="#0C1824"/>
      <stop offset="0.5" stop-color="#16293A"/>
      <stop offset="1" stop-color="#08131E"/>
    </linearGradient>
    <linearGradient id="glow" x1="32" y1="32" x2="224" y2="224" gradientUnits="userSpaceOnUse">
      <stop stop-color="#92F4FF"/>
      <stop offset="1" stop-color="#11C7FF"/>
    </linearGradient>
    <filter id="softGlow" x="-20%" y="-20%" width="140%" height="140%">
      <feGaussianBlur stdDeviation="4" result="blur"/>
      <feMerge><feMergeNode in="blur"/><feMergeNode in="SourceGraphic"/></feMerge>
    </filter>
  </defs>
  <path d="M64 28H192L228 64V192L192 228H64L28 192V64L64 28Z" fill="url(#steel)" stroke="#5BDFFF" stroke-width="3"/>
  <path d="M76 44H180L212 76V180L180 212H76L44 180V76L76 44Z" stroke="#1ACDFF" stroke-opacity="0.65"/>
  <path d="M88 66L158 50L194 98L168 176L98 192L62 144L88 66Z" fill="#0A1D2C" stroke="url(#glow)" stroke-width="3" filter="url(#softGlow)"/>
  <circle cx="108" cy="95" r="7" fill="#8FFBFF"/>
  <circle cx="145" cy="85" r="7" fill="#8FFBFF"/>
  <circle cx="118" cy="124" r="7" fill="#8FFBFF"/>
  <circle cx="155" cy="114" r="7" fill="#8FFBFF"/>
  <circle cx="128" cy="153" r="7" fill="#8FFBFF"/>
  <circle cx="165" cy="143" r="7" fill="#8FFBFF"/>
  <path d="M44 214H96" stroke="#47D8FF" stroke-opacity="0.4"/>
  <path d="M160 214H212" stroke="#47D8FF" stroke-opacity="0.4"/>
</svg>
