<svg xmlns="http://www.w3.org/2000/svg" viewBox="0 0 256 256" fill="none">
  <defs>
    <radialGradient id="rg" cx="50%" cy="50%" r="50%">
      <stop offset="0.7" stop-color="#2AE2FF" stop-opacity="0"/>
      <stop offset="1" stop-color="#2AE2FF" stop-opacity="0.35"/>
    </radialGradient>
    <filter id="glow" x="-30%" y="-30%" width="160%" height="160%">
      <feGaussianBlur stdDeviation="5" result="b"/>
      <feMerge><feMergeNode in="b"/><feMergeNode in="SourceGraphic"/></feMerge>
    </filter>
  </defs>
  <circle cx="128" cy="128" r="118" fill="url(#rg)"/>
  <circle cx="128" cy="128" r="102" stroke="#79EDFF" stroke-width="3" filter="url(#glow)"/>
  <circle cx="128" cy="128" r="112" stroke="#B4FAFF" stroke-opacity="0.35"/>
  <circle cx="128" cy="128" r="92" stroke="#79EDFF" stroke-opacity="0.2"/>
  <path d="M128 16V34M128 222V240M16 128H34M222 128H240M48 48L60 60M196 196L208 208M208 48L196 60M60 196L48 208" stroke="#90F3FF" stroke-width="2" stroke-linecap="round" opacity="0.65"/>
  <path d="M91 33a110 110 0 0 1 74 0" stroke="#52DFFF" stroke-width="3" stroke-linecap="round"/>
  <path d="M223 91a110 110 0 0 1 0 74" stroke="#52DFFF" stroke-width="3" stroke-linecap="round"/>
  <path d="M165 223a110 110 0 0 1-74 0" stroke="#52DFFF" stroke-width="3" stroke-linecap="round"/>
  <path d="M33 165a110 110 0 0 1 0-74" stroke="#52DFFF" stroke-width="3" stroke-linecap="round"/>
</svg>