<svg xmlns="http://www.w3.org/2000/svg" viewBox="0 0 900 620" fill="none">
  <defs>
    <linearGradient id="steel" x1="0" y1="0" x2="0" y2="1">
      <stop offset="0" stop-color="#32404D"/>
      <stop offset="0.12" stop-color="#131D27"/>
      <stop offset="0.88" stop-color="#091018"/>
      <stop offset="1" stop-color="#425363"/>
    </linearGradient>
    <linearGradient id="holo" x1="0" y1="0" x2="1" y2="1">
      <stop offset="0" stop-color="#B5FAFF"/>
      <stop offset="0.5" stop-color="#34CCFF"/>
      <stop offset="1" stop-color="#0073BC"/>
    </linearGradient>
    <filter id="glow" x="-20%" y="-20%" width="140%" height="140%">
      <feGaussianBlur stdDeviation="6" result="b"/>
      <feMerge><feMergeNode in="b"/><feMergeNode in="SourceGraphic"/></feMerge>
    </filter>
  </defs>
  <path d="M28 52L52 28H848L872 52V568L848 592H52L28 568Z" fill="url(#steel)"/>
  <path d="M42 62L62 42H838L858 62V558L838 578H62L42 558Z" fill="#050B13"/>
  <path d="M42 62L62 42H838L858 62V558L838 578H62L42 558Z" stroke="#63E4FF" stroke-width="2.5" filter="url(#glow)"/>
  <path d="M72 75H828" stroke="#8CEEFF" opacity="0.28" stroke-width="1.5"/>
  <path d="M72 545H828" stroke="#8CEEFF" opacity="0.18" stroke-width="1.5"/>
  <path d="M60 105H840" stroke="url(#holo)" opacity="0.16" stroke-width="1"/>
  <path d="M70 72H170L155 88H55Z" fill="#0A1823" stroke="#5CDFFF" stroke-width="1"/>
  <path d="M730 72H830L845 88H745Z" fill="#0A1823" stroke="#5CDFFF" stroke-width="1"/>
  <path d="M65 548H155L170 562H80Z" fill="#0A1823" stroke="#5CDFFF" stroke-width="1"/>
  <path d="M745 548H835L820 562H730Z" fill="#0A1823" stroke="#5CDFFF" stroke-width="1"/>
</svg>