<svg xmlns="http://www.w3.org/2000/svg" width="220" height="52" viewBox="0 0 220 52" fill="none">
  <defs>
    <linearGradient id="bg" x1="0" y1="0" x2="0" y2="52" gradientUnits="userSpaceOnUse">
      <stop offset="0" stop-color="#2C3138"/>
      <stop offset="1" stop-color="#13171D"/>
    </linearGradient>
    <linearGradient id="edge" x1="0" y1="0" x2="220" y2="52" gradientUnits="userSpaceOnUse">
      <stop offset="0" stop-color="#B8C3CF"/>
      <stop offset="0.5" stop-color="#7E8B98"/>
      <stop offset="1" stop-color="#B8C3CF"/>
    </linearGradient>
    <filter id="glow" x="-40%" y="-120%" width="180%" height="340%">
      <feGaussianBlur stdDeviation="3.5" result="b"/>
      <feMerge>
        <feMergeNode in="b"/>
        <feMergeNode in="SourceGraphic"/>
      </feMerge>
    </filter>
    <clipPath id="chip">
      <path d="M18 2H202L218 18V34L202 50H18L2 34V18L18 2Z"/>
    </clipPath>
  </defs>
  <g clip-path="url(#chip)">
    <path d="M18 2H202L218 18V34L202 50H18L2 34V18L18 2Z" fill="url(#bg)"/>
    <path d="M18 2H202L218 18V34L202 50H18L2 34V18L18 2Z" stroke="url(#edge)" stroke-width="2.2"/>
    <path d="M22 8H195L210 22V31L196 44H24L10 31V20L22 8Z" stroke="#EEF3F8" stroke-opacity=".30" stroke-width="1"/>
    <rect x="12" y="13" width="28" height="26" rx="13" fill="#D9E3EE" fill-opacity=".10" stroke="#D9E3EE" stroke-opacity=".40"/>
    <path d="M52 16H186" stroke="#D6E0EA" stroke-opacity=".40" stroke-width="1.2"/>
    <path d="M52 35H170" stroke="#D6E0EA" stroke-opacity=".18" stroke-width="1.2"/>
    <rect x="20" y="24" width="12" height="10" rx="2" stroke="#D6E0EA" stroke-width="2" fill="none"/><path d="M23 24V20C23 18.34 24.34 17 26 17C27.66 17 29 18.34 29 20V24" stroke="#D6E0EA" stroke-width="2" stroke-linecap="round"/>
  </g>
</svg>