<?xml version="1.0" encoding="UTF-8"?>
<svg width="960" height="144" viewBox="0 0 960 144" fill="none" xmlns="http://www.w3.org/2000/svg">
  <defs>
    <linearGradient id="bgGradient" x1="44" y1="22" x2="886" y2="120" gradientUnits="userSpaceOnUse">
      <stop offset="0" stop-color="#08131C"/>
      <stop offset="0.52" stop-color="#0A1B28"/>
      <stop offset="1" stop-color="#071018"/>
    </linearGradient>

    <linearGradient id="innerGradient" x1="68" y1="36" x2="846" y2="104" gradientUnits="userSpaceOnUse">
      <stop offset="0" stop-color="#0D2735" stop-opacity="0.94"/>
      <stop offset="1" stop-color="#08141E" stop-opacity="0.80"/>
    </linearGradient>

    <linearGradient id="strokeGradient" x1="50" y1="28" x2="880" y2="28" gradientUnits="userSpaceOnUse">
      <stop offset="0" stop-color="#86F4FF"/>
      <stop offset="0.45" stop-color="#42C7FF"/>
      <stop offset="1" stop-color="#A7F7FF"/>
    </linearGradient>

    <filter id="outerGlow" x="-30%" y="-120%" width="160%" height="340%" color-interpolation-filters="sRGB">
      <feDropShadow dx="0" dy="0" stdDeviation="4.5" flood-color="#3ED7FF" flood-opacity="0.42"/>
      <feDropShadow dx="0" dy="0" stdDeviation="10" flood-color="#0DBBFF" flood-opacity="0.16"/>
    </filter>

    <clipPath id="panelClip">
      <path d="M50 24H858L904 72V72L858 120H50V24Z"/>
    </clipPath>

    <pattern id="scanlines" width="6" height="6" patternUnits="userSpaceOnUse">
      <rect width="6" height="6" fill="transparent"/>
      <rect y="0" width="6" height="1" fill="#B9FBFF" opacity="0.04"/>
      <rect y="3" width="6" height="1" fill="#7CEBFF" opacity="0.025"/>
    </pattern>
  </defs>

  <path d="M50 24H858L904 72L858 120H50V24Z" fill="#08131C" opacity="0.9" filter="url(#outerGlow)"/>
  <path d="M50 24H858L904 72L858 120H50V24Z"
        fill="url(#bgGradient)"
        stroke="url(#strokeGradient)"
        stroke-width="4.2"
        stroke-linejoin="round"/>
  <path d="M66 38H849L882 72L849 106H66V38Z"
        fill="url(#innerGradient)"
        stroke="#8EEBFF"
        stroke-opacity="0.20"
        stroke-width="1.3"/>
  <rect x="66" y="38" width="816" height="68" fill="url(#scanlines)" clip-path="url(#panelClip)"/>
  <path d="M76 46H834L864 72" stroke="#CCFFFF" stroke-opacity="0.30" stroke-width="1.2" stroke-linecap="round"/>
  <path d="M76 98H834L864 72" stroke="#5FE4FF" stroke-opacity="0.18" stroke-width="1.2" stroke-linecap="round"/>
  <rect x="42" y="42" width="6" height="58" rx="2" fill="#8AF4FF" opacity="0.85"/>
  <path d="M856 25L902 72L856 119" stroke="#D1FFFF" stroke-opacity="0.34" stroke-width="2"/>
</svg>
