<?xml version="1.0" encoding="UTF-8"?>
<svg width="960" height="220" viewBox="0 0 960 220" fill="none" xmlns="http://www.w3.org/2000/svg">
  <defs>
    <linearGradient id="bgGradient" x1="48" y1="34" x2="878" y2="186" gradientUnits="userSpaceOnUse">
      <stop offset="0" stop-color="#0A1014"/>
      <stop offset="0.52" stop-color="#10171D"/>
      <stop offset="1" stop-color="#0A0F13"/>
    </linearGradient>

    <linearGradient id="innerGradient" x1="74" y1="54" x2="834" y2="166" gradientUnits="userSpaceOnUse">
      <stop offset="0" stop-color="#16222A" stop-opacity="0.84"/>
      <stop offset="1" stop-color="#0D1419" stop-opacity="0.74"/>
    </linearGradient>

    <linearGradient id="strokeGradient" x1="54" y1="42" x2="876" y2="42" gradientUnits="userSpaceOnUse">
      <stop offset="0" stop-color="#7E949C"/>
      <stop offset="0.45" stop-color="#667C84"/>
      <stop offset="1" stop-color="#94ABB2"/>
    </linearGradient>

    <linearGradient id="accentGradient" x1="54" y1="174" x2="876" y2="174" gradientUnits="userSpaceOnUse">
      <stop offset="0" stop-color="#8CA1A8" stop-opacity="0.06"/>
      <stop offset="0.5" stop-color="#AFC0C6" stop-opacity="0.18"/>
      <stop offset="1" stop-color="#8CA1A8" stop-opacity="0.06"/>
    </linearGradient>

    <filter id="outerGlow" x="-30%" y="-100%" width="160%" height="300%" color-interpolation-filters="sRGB">
      <feDropShadow dx="0" dy="0" stdDeviation="4" flood-color="#B8C6CC" flood-opacity="0.10"/>
    </filter>

    <clipPath id="panelClip">
      <path d="M56 40H848L904 96V124L848 180H56V40Z"/>
    </clipPath>

    <pattern id="scanlines" width="6" height="6" patternUnits="userSpaceOnUse">
      <rect width="6" height="6" fill="transparent"/>
      <rect y="0" width="6" height="1" fill="#D7E1E5" opacity="0.018"/>
      <rect y="3" width="6" height="1" fill="#B8C6CC" opacity="0.012"/>
    </pattern>

    <pattern id="diagHatch" width="12" height="12" patternUnits="userSpaceOnUse" patternTransform="rotate(35)">
      <rect width="12" height="12" fill="transparent"/>
      <rect width="3" height="12" fill="#C8D3D7" opacity="0.05"/>
    </pattern>
  </defs>

  <path d="M56 40H848L904 96V124L848 180H56V40Z" fill="#0A0F13" opacity="0.92" filter="url(#outerGlow)"/>

  <path
    d="M56 40H848L904 96V124L848 180H56V40Z"
    fill="url(#bgGradient)"
    stroke="url(#strokeGradient)"
    stroke-width="4.5"
    stroke-linejoin="round"
    opacity="0.88"
  />

  <path
    d="M74 58H839L883 101V119L839 162H74V58Z"
    fill="url(#innerGradient)"
    stroke="#BAC8CD"
    stroke-opacity="0.16"
    stroke-width="1.4"
  />

  <rect x="74" y="58" width="809" height="104" fill="url(#diagHatch)" clip-path="url(#panelClip)"/>
  <rect x="74" y="58" width="809" height="104" fill="url(#scanlines)" clip-path="url(#panelClip)"/>

  <path d="M84 67H829L867 103" stroke="#CFD9DD" stroke-opacity="0.18" stroke-width="1.4" stroke-linecap="round"/>
  <path d="M84 153H829L867 117" stroke="#A8B8BE" stroke-opacity="0.14" stroke-width="1.4" stroke-linecap="round"/>

  <rect x="48" y="62" width="7" height="95" rx="2" fill="#AAB9BF" opacity="0.46"/>
  <rect x="90" y="168" width="745" height="4" rx="2" fill="url(#accentGradient)"/>
  <path d="M846 41L902 96V124L846 179" stroke="#D7E1E5" stroke-opacity="0.22" stroke-width="2"/>

  <path d="M60 44H98" stroke="#D5E0E4" stroke-opacity="0.22" stroke-width="2" stroke-linecap="round"/>
  <path d="M60 176H98" stroke="#B2C0C6" stroke-opacity="0.18" stroke-width="2" stroke-linecap="round"/>

  <rect x="104" y="78" width="694" height="64" rx="8" stroke="#C7D2D6" stroke-opacity="0.08" stroke-dasharray="6 8"/>

  <path d="M118 53H200" stroke="#B4C3C9" stroke-opacity="0.24" stroke-width="3" stroke-linecap="round"/>

  <!-- Locked marker -->
  <path d="M808 122H850C856.627 122 862 127.373 862 134V145H796V134C796 127.373 801.373 122 808 122Z" fill="#9EAFB5" opacity="0.18"/>
  <path d="M808 122H850C856.627 122 862 127.373 862 134V145H796V134C796 127.373 801.373 122 808 122Z" stroke="#C9D5D9" stroke-opacity="0.32" stroke-width="1.4"/>
  <path d="M807 122V114C807 105.716 813.716 99 822 99H836C844.284 99 851 105.716 851 114V122" stroke="#CDD7DB" stroke-opacity="0.34" stroke-width="2.2" stroke-linecap="round"/>
</svg>
