<svg xmlns="http://www.w3.org/2000/svg" width="220" height="52" viewBox="0 0 220 52" fill="none">
  <defs>
    <linearGradient id="bg" x1="0" y1="0" x2="0" y2="52" gradientUnits="userSpaceOnUse">
      <stop offset="0" stop-color="#443414"/>
      <stop offset="1" stop-color="#171109"/>
    </linearGradient>
    <linearGradient id="edge" x1="0" y1="0" x2="220" y2="52" gradientUnits="userSpaceOnUse">
      <stop offset="0" stop-color="#FFE49A"/>
      <stop offset="0.5" stop-color="#FFC55A"/>
      <stop offset="1" stop-color="#FFE49A"/>
    </linearGradient>
    <filter id="glow" x="-40%" y="-120%" width="180%" height="340%">
      <feGaussianBlur stdDeviation="3.5" result="b"/>
      <feMerge>
        <feMergeNode in="b"/>
        <feMergeNode in="SourceGraphic"/>
      </feMerge>
    </filter>
    <clipPath id="chip">
      <path d="M18 2H202L218 18V34L202 50H18L2 34V18L18 2Z"/>
    </clipPath>
  </defs>
  <g clip-path="url(#chip)">
    <path d="M18 2H202L218 18V34L202 50H18L2 34V18L18 2Z" fill="url(#bg)"/>
    <path d="M18 2H202L218 18V34L202 50H18L2 34V18L18 2Z" stroke="url(#edge)" stroke-width="2.2"/>
    <path d="M22 8H195L210 22V31L196 44H24L10 31V20L22 8Z" stroke="#FFF4D8" stroke-opacity=".30" stroke-width="1"/>
    <rect x="12" y="13" width="28" height="26" rx="13" fill="#FFD95C" fill-opacity=".10" stroke="#FFD95C" stroke-opacity=".40"/>
    <path d="M52 16H186" stroke="#FFD95C" stroke-opacity=".40" stroke-width="1.2"/>
    <path d="M52 35H170" stroke="#FFD95C" stroke-opacity=".18" stroke-width="1.2"/>
    <path d="M26 16L35 34H17L26 16Z" stroke="#FFD95C" stroke-width="2" fill="none"/><path d="M26 22V28" stroke="#FFD95C" stroke-width="2" stroke-linecap="round"/><circle cx="26" cy="32" r="1.5" fill="#FFD95C"/>
  </g>
</svg>